<?xml version="1.0" encoding="utf-8"?>
<!-- Generator: Adobe Illustrator 27.3.1, SVG Export Plug-In . SVG Version: 6.00 Build 0)  -->
<svg version="1.1" xmlns="http://www.w3.org/2000/svg" xmlns:xlink="http://www.w3.org/1999/xlink" x="0px" y="0px"
	 viewBox="0 0 254.5 128.9" style="enable-background:new 0 0 254.5 128.9;" xml:space="preserve">
<style type="text/css">
	.st0{display:none;}
	.st1{display:inline;fill:#FFFFFF;stroke:#000000;stroke-width:0.25;stroke-miterlimit:10;}
	.st2{display:inline;fill:#A7A8A9;}
	.st3{display:inline;}
	.st4{display:inline;fill:#886761;}
	.st5{display:inline;fill:#E5D4D3;}
	.st6{display:inline;fill:none;stroke:#000000;stroke-width:0.25;stroke-miterlimit:10;}
	.st7{fill:#E5D4D3;}
	.st8{fill:#FFFFFF;}
	.st9{fill:#886761;}
</style>
<g id="Original_Designer" class="st0">
</g>
<g id="GM_Graphics" class="st0">
	<g class="st3">
		<g>
			<g>
				<path class="st9" d="M137.5,48c0.1,0,0.2-0.1,0.4-0.2c1.1-0.7,2.1-0.9,0.7-1.8c-1-0.7-3.1-0.1-4.1,0.2c-2.3,0.8-4.6,1.8-6.7,2.9
					c-0.2,0.1-1.1,0.5-2,1c-0.9,0.5-1.7,0.9-1.8,0.9c0,0-3.3,1.9-3.1,1.8c-0.6,0.3-2.2,1.2-3.8,2c-0.8,0.4-1.6,0.8-2.3,1.2
					c-0.8,0.4-1,0.4-1.2,0.5c-0.1,0-0.8,0-0.8,0c-0.3,0-0.5-0.1-0.6-0.1c-0.1,0-0.1,0-0.2,0c-0.1,0-0.1,0-0.7-0.2
					c-0.7-0.2-3.3-0.8-3.4-0.8c-0.1,0-0.3-0.1-0.3-0.1c-0.4-0.1-0.8,0-1.1-0.1c-0.3,0-1,0.1-1.2,0.1c-0.8,0.2-1.6,0.6-1.6,0.6
					c-0.4,0.2-1.3,0.7-2.3,1.3c-1,0.5-2.2,1.1-2.2,1.1c-0.5,0.2-2.2,1-4,1.5c-0.9,0.3-1.7,0.5-2.5,0.7c-0.7,0.2-1.3,0.3-1.6,0.4
					C90.9,61,90,61.2,90,61.2c-0.1,0-2.9,0.6-3.9,0.8c0,0-1,0.2-1.4,0.2c-0.4,0-0.8,0.1-1.1,0.1c0,0.1-1.2,2.3-1.2,2.5
					c0,0,7.5-0.9,7.8-1c0.4-0.1,0.8-0.2,1.3-0.3c1-0.2,2.1-0.5,3.2-0.8c2.2-0.6,4.4-1.5,5.2-1.9c0,0,1.4-0.6,2.3-1.1
					c0.9-0.4,1.8-0.9,2.7-1.4c0.9-0.4,1.5-0.6,2.3-0.5c0.8,0.1,1.5,0.3,2.2,0.6c0.4,0.2,1,0.4,1.5,0.6c0.1,0,0.9,0.1,1.8,0.2
					c0.3,0,0.6,0,1,0c0.2,0,0.4-0.1,0.7-0.1c0.2-0.1,0.5-0.2,0.7-0.3c0.4-0.2,0.8-0.4,1.3-0.6c0.4-0.2,0.9-0.4,1.3-0.7
					c1.7-0.9,6.2-3.4,6.2-3.4c0.4-0.2,1.6-0.9,2.8-1.5c1.2-0.6,2.5-1.3,2.9-1.5l1.9-1c0.4-0.2,1.2-0.7,1.8-0.9c0,0,0.6-0.2,1-0.4
					c0.4-0.1,0.7-0.3,0.9-0.3C135.8,48.4,136.7,48.2,137.5,48z"/>
			</g>
			<g>
				<path class="st9" d="M176.2,44.9c-0.1-0.3-0.2-0.5-0.3-0.8c-0.1-0.2-0.2-0.5-0.3-0.7c-0.2-0.5-0.3-0.9-0.5-1.4
					c-0.7-1.9-1.3-3.8-2-5.8c-0.6-2-1.3-4-2-5.9c-0.7-1.9-1.4-3.7-2.1-5.3c-0.2-0.4-0.3-0.8-0.5-1.2c-0.2-0.4-0.4-0.8-0.5-1.1
					c-0.4-0.7-0.7-1.4-1.1-2c-0.7-1.2-1.1-2.1-1.2-2.5c0-0.1,0-0.3,0-0.5c0-0.2,0-0.4,0-0.5c0-0.2,0-0.4,0.1-0.5
					c0-0.2,0.1-0.4,0.1-0.5c0.2-0.7,0.6-1.4,1.1-2.1c0.2-0.3,0.5-0.7,0.8-1c0.2-0.2,0.4-0.5,0.6-0.7c0.2-0.3,0.4-0.6,0.7-0.9
					c0.2-0.3,0.4-0.6,0.5-0.9c0.2-0.3,0.2-0.6,0.3-0.9c0.2-0.6,0.2-1,0.2-1.6c0,0,0-0.3,0.1-0.8c0-0.1,0-0.3,0-0.4
					c0-0.1,0-0.1-0.1-0.2c0-0.1-0.1-0.3-0.1-0.4c-0.7,0.4-1.5,0.7-2.4,1.2c-0.1,0.1-0.2,0.1-0.3,0.2l-0.3,0.1
					c-0.2,0.1-0.4,0.1-0.6,0.2c-0.2,0.1-0.4,0.2-0.6,0.2l-0.3,0.1l-0.2,0.1c-0.1,0-0.1,0-0.1,0c-0.9,0.2-2,0.4-3.1,0.5
					c-2.3,0.2-4.8,0-7.3-0.4c-2.5-0.4-4.9-0.9-6.9-1.2c-2-0.3-3.7-0.5-4.6-0.6c0,0-2-0.2-2.7-0.2c-0.7-0.1-1.3-0.2-2.7-0.2
					c-0.2,0-2.7,0.1-3.9,0.1L125.7,7c-0.1,0-0.3,0-0.4,0.1c-1.2,0.2-2.8,0.5-4.4,0.9c-0.8,0.2-1.6,0.4-2.3,0.6
					c-0.7,0.2-1.3,0.4-1.7,0.5c-1.9,0.6-4.4,1.3-6.9,2.4c-2.5,1.1-5.1,2.4-7.4,3.9c-1,0.6-2,1.2-3,1.9c-0.1,0.1-0.3,0.2-0.4,0.3
					c0,0-0.8,1.3-0.8,2c0,0.4,0.1,0.6,0.7,0.5c0.3,0,0.6-0.2,1.1-0.4c0.2-0.1,0.5-0.3,0.8-0.4c0.2-0.1,2-1.3,2-1.3
					c1.4-0.9,2.9-1.8,3.8-2.3c1.5-0.8,0.4-0.2,1.9-0.9c4.7-2.1,9.5-3.8,14.5-4.7c5-0.9,15.3-1.1,15-1.1c3.1,0.1,5.9,0.4,8.7,0.8
					c0.8,0.1,1,0.2,1.2,0.3c-0.1,0,0.8,0.1,2.3,0.4c1.5,0.3,3.5,0.7,5.6,0.9c2.1,0.3,4.3,0.3,6,0.2c1.7-0.1,3.1-0.5,3.1-0.5
					c0.4-0.1,0.7-0.2,1-0.2c0,0,0,0,0.1,0c0,0,0.2,0,0.2-0.1c0,0,0,0,0.1,0c0,0,0,0.1,0,0.1c0,0-0.1,0.1-0.1,0.1
					c0,0.1-0.1,0.1-0.1,0.1c-0.1,0.2-0.2,0.3-0.3,0.4c0,0-0.2,0.3-0.5,0.5c-0.2,0.3-0.4,0.5-0.5,0.5c-0.1,0.2-0.3,0.6-0.6,1
					c-0.1,0.2-0.2,0.3-0.3,0.5c-0.1,0.3-0.3,0.7-0.4,1c-0.1,0.3-0.1,0.4-0.2,0.6c-0.1,0.4-0.2,0.8-0.2,1.2c-0.1,1-0.1,0.6-0.1,0.8
					c0,0.1,0,0.3,0,0.4c0,0.1,0,0.4,0.1,0.5c0.1,0.7,0.4,1.4,0.7,2c0.6,1.2,1.4,2.4,2,3.8c1.3,2.9,2.7,6.5,3.9,10.3
					c0.6,1.9,1.2,3.7,1.8,5.6c0.3,0.9,0.6,1.8,0.9,2.6c0.3,0.8,0.6,1.6,0.9,2.4c0.4,1.3,0.5,2.7,0.3,3.6c0,0.2-0.2,1.1-0.5,1.3
					c-0.2,0.1-0.7,0.2-1.4,0.3c-0.7,0.1-1.9-0.3-2.1-0.4c-0.2-0.1-1-0.9-1.1-1.3c-0.2-0.4-0.3-0.7-0.4-0.9c-0.2-0.5-0.2-0.6-0.3-0.8
					c0-0.1-0.1-0.3-0.2-0.7c-0.1-0.2-0.2-0.5-0.3-1c-0.1-0.2-0.2-0.5-0.4-0.8c-0.1-0.2-0.2-0.3-0.3-0.5c-0.1-0.2-0.2-0.4-0.3-0.5
					c-0.6-0.9-1.2-1.5-1.8-2c-0.6-0.5-1.2-0.8-1.7-1.1c-1-0.6-1.7-0.9-2.5-1.4c-0.1,0-0.5-0.3-1-0.6c-0.5-0.3-1-0.6-1.1-0.8
					c-0.2-0.1-0.4-0.3-0.6-0.5c-0.2-0.2-0.5-0.5-0.7-0.8c-0.5-0.5-1-1.2-1.3-1.6c-0.2-0.4-0.6-0.9-0.6-1c-0.7-1.1-1-2.1-1.4-3
					c-0.1-0.2-0.2-0.5-0.3-0.7c-0.1-0.2-0.2-0.5-0.3-0.7c-0.2-0.5-1.5-2-2.2-2.5c-0.3-0.2-0.7-0.4-0.9-0.5c-0.3-0.1-0.4-0.2-0.9-0.4
					c-0.6-0.2-1.2-0.3-1.8-0.5c-1.2-0.2-2.3-0.4-3.6-0.3c0,0-1.6,0-3.7,0.4c-2.1,0.4-4.5,1.2-6.6,2.5c-2.2,1.2-4.1,2.9-5.4,4.4
					c-0.3,0.4-0.6,0.8-0.9,1.1c-0.1,0.2-0.3,0.4-0.4,0.5c-0.1,0.2-0.2,0.3-0.3,0.5c-0.4,0.7-1.1,2-1.3,2.5c-0.1,0.2-0.2,0.5-0.4,0.8
					c-0.1,0.3-0.3,0.6-0.4,1c0.3,0.2,0.5,0.4,0.9,0.7c0,0,1.5,0.6,1.5,0.5l0.4-0.1c0.1,0,0.3-0.1,0.4-0.1c0.3-0.1,0.5-0.1,0.8-0.2
					c0.3-0.1,0.7-0.1,1.1-0.2c0.6-0.1,1.3-0.2,2-0.4c1.3-0.3,2.7-0.5,4.2-0.6c1.5-0.1,3-0.2,4.6-0.3c1.6-0.1,3.1-0.2,4.3,0.1
					c0.6,0.2,1.1,0.4,1.5,0.8c0.4,0.4,0.7,0.8,0.8,1.3c0.3,1,0.2,2.2,0,3.3c-0.5,2.1-1.3,3.8-1.6,4.7c-0.8,1.7-1,2-1.4,2.9l-1.2,2.4
					c-0.3,0.5-0.6,1.3-1.9,3.4c-1.1,1.8-1.2,1.8-2.6,3.4c-0.7,0.8-1.4,1.6-2.2,2.3c-0.4,0.4-0.8,0.7-1.2,1c-0.2,0.2-0.4,0.3-0.6,0.5
					l-0.3,0.2l-0.2,0.1c0,0-0.4,0.1-0.5,0.2c-0.4,0.2-0.4,0.2-0.5,0.2c-1.4,0.6-3.1,1-4.8,1.3c-0.4,0.1-0.8,0.1-1.2,0.2
					c-0.2,0-0.4,0.1-0.6,0.1c-0.2,0-0.4,0-0.5,0.1c-0.4,0-1.1,0-1.3,0c-0.2,0-0.4-0.1-0.5-0.2c-0.3-0.3-0.2-0.8,0.2-1.5
					c0.2-0.4,0.4-0.5,0.3-0.9c-0.6-0.1-1.2,0.1-1.6,0.4c-0.1,0.1-0.2,0.2-0.3,0.3c0,0.1-0.1,0.1-0.1,0.2c-0.2,0.2-0.4,0.5-0.6,0.8
					c-0.2,0.3-0.3,0.6-0.3,0.9c0,0,0,0.1,0,0.1c0,0.2,0,0.4,0.1,0.7c0.3,0.9,1,1.5,2.3,1.7c0.6,0.1,1.4,0.1,2,0c0.2,0,0.4,0,0.6-0.1
					c0.2,0,0.5,0,0.5,0c1.7-0.2,3-0.5,4.2-0.9c0.6-0.2,1.2-0.4,1.9-0.6c0.3-0.1,0.7-0.2,1-0.4c0.2-0.1,0.4-0.1,0.6-0.2
					c0.1-0.1,0.2-0.1,0.4-0.2c0.1,0,0.2-0.1,0.2-0.1c0,0,0.2-0.1,0.2-0.1c0.1-0.1,0.3-0.2,0.5-0.3c0.3-0.2,0.7-0.5,1-0.8
					c0.7-0.6,1.4-1.4,2.2-2.2c1.6-1.7,2.9-3.5,3.1-3.9c0.5-0.8,1.1-1.8,1.9-3c0.7-1.2,1.6-2.7,2.4-4.4c0.4-0.8,0.8-1.7,1.2-2.6
					c0.4-0.9,0.8-1.9,1.1-2.9c0.3-1,0.6-2.1,0.8-3.3c0.1-1.2,0.1-2.5-0.4-3.8c-0.3-0.6-0.7-1.3-1.2-1.8c-0.5-0.5-1.1-0.9-1.8-1.2
					c-1.3-0.5-2.6-0.6-3.7-0.6c-1.1,0-2.2,0.1-3.1,0.1c-1,0-2,0.1-3,0.2c-1.9,0.1-3.8,0.4-5.4,0.7c-0.2,0-0.4,0.1-0.6,0.1
					c-0.2,0-0.3,0.1-0.5,0.1c-0.4,0.1-0.7,0.1-1.1,0.2c-0.3,0.1-0.8,0.2-0.9,0.2c-0.1,0-0.2,0.1-0.2,0.1c0,0,0,0,0,0
					c0-0.1,0.3-0.6,0.3-0.6c0.2-0.3,0.4-0.7,0.6-1c0.2-0.3,0.5-0.6,0.7-1c1-1.3,2.4-2.6,4-3.7c1.6-1.1,3.4-2,5.4-2.5
					c2-0.6,4.1-0.8,6.1-0.7l1.5,0.2c0.5,0.1,1,0.2,1.5,0.4c1,0.3,1.8,0.7,2.3,1.2c0.5,0.5,0.8,1.5,1.2,2.5c0.4,1,0.9,2.1,1.5,3.1
					c0.3,0.5,0.6,0.9,0.9,1.4c0.3,0.4,0.7,0.9,1,1.3c0.4,0.4,0.7,0.8,1.1,1.2c0.4,0.4,0.8,0.7,1.2,1c0.8,0.6,1.6,1.1,2.4,1.5
					c0.8,0.4,1.4,0.8,2,1.2c0.7,0.5,1.5,1.1,2.1,1.8c0.3,0.4,0.6,0.7,0.8,1.1c0.2,0.4,0.3,0.6,0.4,0.7c0,0,0.1,0.3,0.3,0.7
					c0.4,1.4,0.7,2.2,0.9,2.7c0.2,0.4,0.2,0.5,0.3,0.5c0,0.1,0.1,0.1,0.3,0.6c0.1,0.2,0.4,0.5,0.8,1c0.4,0.4,1.1,0.9,2,1.2
					c0.5,0.2,1.1,0.3,1.8,0.3c0.7,0,1.5,0,2.3-0.3c0.4-0.1,0.9-0.3,1.3-0.6c0.4-0.3,0.9-0.7,1.2-1.3c0.5-1,0.6-2,0.6-3
					C176.6,47,176.5,46,176.2,44.9z"/>
			</g>
		</g>
	</g>
	<g class="st3">
		<g>
			<path d="M27.1,97.3l-0.6,0.4c-0.1,0.1-0.3,0.2-0.7,0.4c-0.3,0.2-0.6,0.3-1,0.5c-0.3,0.2-0.6,0.3-0.9,0.5
				c-0.3,0.2-0.4,0.3-0.5,0.3c-0.9,0.5-2.1,0.9-3.4,1.2c-0.4,0.1-0.7,0.2-1,0.3c-0.3,0.1-0.6,0.1-0.9,0c-0.3,0-0.5-0.1-0.7-0.2
				c-0.2-0.1-0.4-0.2-0.6-0.4c-0.2,0-0.4-0.1-0.4-0.1c0-0.1-0.1-0.1-0.2-0.2L16,99.6l-0.1-0.3c0-0.2,0-0.4-0.1-0.6
				c-0.1-0.2-0.1-0.3,0-0.5c0-0.7,0.1-1.3,0.3-2.1c0.1-0.4,0.2-0.8,0.3-1.1l-1.1,1.3l-1.6,1.5L12.6,99c-0.3,0.5-0.5,0.7-0.6,0.9
				c-0.1,0.1-0.3,0.4-0.7,0.7l-1.1,1.6c-0.4,0.5-0.7,0.9-0.9,1.2c-0.2,0.3-0.5,0.7-0.8,1.3c-0.2,0.2-0.3,0.4-0.4,0.4
				c-0.1,0-0.1,0.2-0.2,0.4l-0.6,0.8l-0.1,0.2l-0.2,0.4c0,0.1,0,0.2,0,0.2c0,0.1-0.1,0.2-0.3,0.3l-0.1,0.1c0,0.1-0.1,0.1-0.2,0.1
				c-0.2,0-0.4,0-0.5,0c-0.3-0.1-0.5-0.2-0.7-0.4c-0.2,0-0.3-0.2-0.4-0.4c-0.1-0.2-0.2-0.4-0.2-0.5l0-0.4c0-0.1,0-0.2,0.1-0.2
				c0-0.1,0.1-0.1,0.1-0.2l0.2-0.5l0.5-0.8c0.2-0.5,0.3-0.8,0.4-1.2c0.1-0.3,0.2-0.7,0.4-1.2c0.1-0.3,0.2-0.5,0.3-0.6
				c0.1-0.2,0.1-0.3,0.1-0.4c0-0.1,0.1-0.2,0.2-0.4c0.1-0.1,0.2-0.3,0.3-0.5c0.1-0.2,0.1-0.4,0.1-0.4c0,0,0-0.2,0-0.4l0.8-1.6
				c0.3-0.6,0.5-1.1,0.7-1.4C8.7,95.8,8.8,95.4,9,95c0.2-0.3,0.4-0.6,0.4-0.9c0.1-0.3,0.2-0.6,0.3-0.8c0-0.1,0.1-0.3,0.2-0.6
				c0.1-0.2,0.2-0.7,0.4-1.3c0.1-0.2,0.2-0.4,0.4-0.4l0.3,0c0.2,0,0.4,0,0.5,0c0.1,0,0.2,0.1,0.4,0.1c0.1,0.1,0.2,0.3,0.4,0.4
				c0.2,0.1,0.3,0.3,0.4,0.4c0,0.1,0,0.2,0.1,0.3c0,0.1,0,0.2-0.1,0.3c0,0.1,0,0.3,0,0.5c0,0.2-0.1,0.6-0.3,1.1
				c-0.2,0.5-0.4,1-0.5,1.4s-0.4,1-0.7,1.6l1.9-2.1l1.4-1.5c0.2-0.1,0.4-0.3,0.7-0.5c0.2-0.2,0.5-0.4,0.7-0.6l0.5-0.2
				c0.1,0,0.2,0,0.2-0.1c0,0,0.2-0.1,0.4-0.1l0.7,0l0.4,0.2c0,0,0.1,0,0.2,0.1c0.2,0.1,0.3,0.1,0.3,0.2l0.1,0.3
				c0.1,0,0.1,0.1,0.1,0.3l0,0.2c-0.1,0.8-0.2,1.4-0.4,1.8c-0.3,0.7-0.4,1.2-0.4,1.7l-0.4,0.9l-0.2,0.9c0.1,0.2,0.1,0.4,0.1,0.6
				c0,0.2,0,0.4,0.1,0.6l0,0.1l0.4,0c0.7,0,1.3-0.2,1.9-0.4c0.7-0.1,1.2-0.3,1.7-0.5c0.5-0.2,1-0.5,1.6-0.8c0.2-0.1,0.5-0.2,1-0.5
				c0.5-0.3,0.8-0.5,0.9-0.6l0.9-0.6l0.5,0l0.4,0.5L27.1,97.3z"/>
			<path d="M27.7,91.5l0.1,0l0.1,0.1c0.3,0,0.5,0.1,0.6,0.3c0.4,0.1,0.6,0.3,0.7,0.6c0.1,0.2,0.1,0.3,0,0.4
				c-0.1,0.2-0.2,0.4-0.3,0.6c-0.1,0.2-0.1,0.4-0.2,0.6c-0.2,0.4-0.4,0.7-0.5,1.1c-0.1,0.4-0.3,0.8-0.5,1.1c-0.1,0.3-0.2,0.6-0.3,1
				c-0.1,0.4-0.3,0.7-0.4,1l-0.9,2.2c-0.2,0.4-0.4,0.7-0.5,1.1s-0.3,0.7-0.4,1.1c-0.1,0.3-0.2,0.5-0.3,0.8c-0.1,0.2-0.1,0.5-0.2,0.8
				c0,0.1,0,0.2,0.1,0.3c0,0,0,0.1,0,0.2c0.1,0,0.2,0,0.3,0c0.1,0,0.2,0,0.3,0c0.1-0.1,0.3-0.1,0.4-0.1c0.2,0,0.3-0.1,0.4-0.2
				c0.2-0.1,0.4-0.2,0.6-0.3c0.2-0.1,0.4-0.2,0.6-0.4c0.7-0.3,1.4-0.7,2.1-1.1c0.7-0.4,1.3-0.8,2-1.2c0.2-0.2,0.3-0.3,0.5-0.5
				c0.1-0.1,0.3-0.2,0.5-0.3c0.3-0.1,0.5-0.3,0.6-0.4c0.1-0.1,0.3-0.2,0.5-0.4l2-1.4c0.3-0.3,0.7-0.6,1-0.8c0.4-0.3,0.7-0.5,1-0.8
				c0.4-0.2,0.9-0.6,1.4-1.1c0.6-0.5,1-0.9,1.4-1.2c0.1,0,0.3,0,0.5,0c0.1,0,0.2,0.1,0.2,0.1c0.1,0,0.1,0.1,0.2,0.2
				c0.2,0.2,0.3,0.4,0.2,0.5c-0.2,0.3-0.4,0.5-0.5,0.6c-0.1,0.1-0.2,0.3-0.4,0.4c-0.1,0.1-0.2,0.2-0.2,0.3c-0.7,0.6-1.2,1.1-1.7,1.5
				c-0.5,0.4-1.1,0.9-1.8,1.4c-0.3,0.2-0.7,0.5-1,0.7c-0.3,0.3-0.7,0.5-1,0.8c-0.4,0.2-0.8,0.5-1.1,0.7c-0.3,0.2-0.6,0.5-0.9,0.7
				l-2,1.4c-0.3,0.2-0.7,0.5-1,0.6c-0.3,0.2-0.7,0.4-1.2,0.7c-0.3,0.2-0.7,0.4-1,0.6c-0.3,0.2-0.8,0.3-1.2,0.5
				c-0.4,0.2-0.8,0.3-1.3,0.3c-0.5,0-0.9-0.1-1.3-0.3c-0.1-0.1-0.3-0.1-0.4-0.1c-0.1,0-0.2-0.1-0.3-0.2c0-0.1-0.1-0.1-0.2-0.1
				c-0.1,0-0.1,0-0.2-0.1c-0.1-0.1-0.2-0.2-0.3-0.3c0-0.1-0.1-0.2-0.2-0.3c-0.2-0.3-0.3-0.6-0.2-0.8c-0.1-0.2-0.2-0.5-0.1-0.8l0-0.4
				l0.3-1.1c0.1-0.4,0.2-0.7,0.4-1.1c0.1-0.4,0.3-0.8,0.5-1.1c0.1-0.4,0.2-0.7,0.3-1.1c0.2-0.4,0.3-0.7,0.5-1.1l1.1-2.1
				c0.2-0.3,0.4-0.6,0.6-1c0.2-0.3,0.4-0.7,0.6-1c0.2-0.4,0.3-0.7,0.5-1.1c0.2-0.4,0.3-0.7,0.5-1.1L27.7,91.5z M30.7,83.4
				c0,0,0.1,0.1,0.3,0.1c0.2,0.1,0.3,0.1,0.5,0.2c0.2,0,0.3,0.1,0.4,0.2c0.1,0.1,0.2,0.3,0.3,0.4c0.1,0.1,0.2,0.3,0.3,0.5
				c0.1,0.2,0.1,0.3,0,0.5l-1.7,3.7c0,0.1-0.2,0.1-0.4,0.2l-0.3,0c-0.4-0.1-0.6-0.2-0.8-0.4c-0.3-0.2-0.4-0.3-0.5-0.6
				c-0.1,0-0.2-0.2-0.3-0.5c0.4-1.3,0.9-2.6,1.6-3.9L30.7,83.4z"/>
			<path d="M61.4,64.3c0-0.1,0.2-0.1,0.5-0.2l0.2,0c0.1,0,0.2,0.1,0.3,0.1c0.1,0,0.2,0.1,0.3,0.2c0.1,0.1,0.3,0.2,0.4,0.2
				c0.1,0.1,0.2,0.2,0.3,0.4l0,0.5l-0.2,0.4l0,0.1l-0.2,0.5c-0.1,0.2-0.2,0.5-0.3,0.7c-0.2,0.4-0.4,0.8-0.5,1.2s-0.4,0.8-0.6,1.1
				c-0.2,0.5-0.4,0.9-0.5,1.3c-0.2,0.4-0.3,0.8-0.5,1.2l-0.8,1.6c-0.1,0.2-0.2,0.4-0.2,0.6s-0.2,0.3-0.2,0.4
				c-0.2,0.4-0.3,0.9-0.5,1.3c-0.2,0.4-0.3,0.9-0.5,1.3c-0.1,0.4-0.2,0.8-0.3,1.2s-0.3,0.8-0.5,1.3c-0.2,0.4-0.4,0.8-0.5,1.3
				c-0.2,0.4-0.3,0.9-0.5,1.3c-0.6,1.7-1.1,3.3-1.6,5c-0.5,1.7-1,3.4-1.5,5.1l0,0.3c-0.2,0.4-0.3,0.8-0.3,1.2
				c-0.1,0.4-0.1,0.9-0.2,1.3c-0.1,0.4-0.1,0.8-0.2,1.2c-0.1,0.4-0.2,0.8-0.2,1.2l-0.1,1.3c0,0.2-0.1,0.4-0.1,0.7
				c0,0.2-0.1,0.4-0.1,0.6c0.1,0.4,0.1,0.8,0.1,1.1c0,0.3,0,0.7,0.1,1c0.1,0.1,0.2,0.3,0.2,0.4c0,0.2,0.1,0.3,0.1,0.5l0.2,0.3l0.2,0
				c0,0,0.1,0,0.2,0.1c0.2,0,0.4-0.1,0.5-0.2l0.3,0c0,0,0.1-0.1,0.2-0.1c0.1,0,0.2-0.1,0.3-0.1l0.8-0.5c0.2-0.1,0.4-0.3,0.6-0.4
				c0.2-0.1,0.4-0.2,0.5-0.4c0.3-0.2,0.6-0.5,0.9-0.7c0.3-0.3,0.6-0.5,0.9-0.7c0.2-0.2,0.3-0.3,0.3-0.4c0.7-0.7,1.3-1.3,1.9-2
				c0.6-0.6,1.2-1.3,1.7-2c0.3-0.4,0.6-0.8,0.9-1.1c0.3-0.3,0.6-0.7,0.8-1.1c0.2-0.2,0.4-0.4,0.5-0.5c0.1-0.2,0.3-0.3,0.5-0.5
				c0.1-0.2,0.2-0.3,0.3-0.4c0.1-0.1,0.3-0.2,0.5-0.4c0.2-0.1,0.4-0.1,0.5,0c0.1,0.1,0.2,0.2,0.3,0.3c0,0.1,0.1,0.2,0.2,0.3
				c0.1,0.1,0.1,0.3,0.1,0.5c0,0,0,0.1-0.1,0.3c-0.2,0.3-0.3,0.5-0.4,0.6c0,0.1-0.2,0.3-0.5,0.6c-0.2,0.3-0.4,0.6-0.6,0.9
				c-0.2,0.3-0.5,0.5-0.7,0.9c-0.4,0.6-0.8,1.2-1.3,1.7c-0.5,0.6-0.9,1.1-1.4,1.7l-1.9,2c-0.4,0.3-0.8,0.6-1.1,0.9
				c-0.4,0.3-0.7,0.5-1.1,0.8l-0.9,0.8c-0.3,0.2-0.5,0.4-0.8,0.4c-0.3,0.1-0.6,0.1-0.9,0.2c-0.6,0.3-1.3,0.3-1.8,0.1
				c-0.6-0.2-1.1-0.5-1.6-0.9c-0.4-0.3-0.7-0.6-0.9-1c-0.2-0.4-0.4-0.8-0.5-1.2c-0.4-0.8-0.6-1.6-0.6-2.6c-0.1-0.9-0.1-1.7,0-2.6
				c0.1-0.8,0.1-1.7,0.2-2.6c0-0.5,0.1-0.9,0.2-1.3c0.1-0.4,0.2-0.8,0.4-1.2c0.1-0.4,0.3-1,0.4-1.5l-0.9,1.3l-3.1,4.5l-3.1,4.4
				l-1.7,1.8c-0.3,0.4-0.7,0.7-1,1.1c-0.3,0.3-0.7,0.7-1,1c-0.2,0.1-0.4,0.3-0.5,0.4c-0.1,0.1-0.2,0.2-0.3,0.3
				c-0.1,0.1-0.4,0.3-0.7,0.4l-0.3,0.1c0,0-0.1,0.1-0.2,0.1c0,0-0.1,0-0.1,0.1c-0.4,0-0.8,0-1.2-0.2c-0.1-0.1-0.2-0.1-0.3-0.2
				c-0.1,0-0.2-0.1-0.3-0.2c0,0-0.1-0.1-0.1-0.2c0-0.1-0.1-0.1-0.2-0.2c-0.2-0.3-0.3-0.7-0.3-1.1l0-0.4c0-0.2,0-0.4,0-0.6
				c0-0.2,0-0.4,0.1-0.6c0.1-0.3,0.1-0.5,0.2-0.7c0.1-0.2,0.2-0.4,0.3-0.7c0-0.2,0.1-0.4,0.1-0.5c0.1-0.2,0.1-0.4,0.2-0.5
				c0.1-0.2,0.2-0.4,0.4-0.5c0.1-0.1,0.3-0.3,0.5-0.6c0.1-0.4,0.3-0.7,0.5-1c0.2-0.3,0.5-0.6,0.7-1c0.4-0.4,0.7-0.7,1-1
				c0.3-0.3,0.5-0.6,0.8-1l2-1.8c0.3-0.2,0.7-0.5,1-0.6c0.3-0.2,0.8-0.3,1.2-0.4c0.3-0.1,0.6,0,1,0c0.3,0.1,0.6,0.2,0.8,0.4
				c0,0,0.1,0.1,0.2,0.1c0.1,0,0.2,0.1,0.2,0.2l2.2-3.6c0.4-0.8,0.9-1.5,1.4-2.3c0.5-0.7,0.9-1.5,1.4-2.3l2.8-4.9l0.8-1.4l1.5-3.8
				c0.3-0.9,0.6-1.7,1-2.5c0.4-0.8,0.7-1.6,1.1-2.4c0.2-0.4,0.4-0.8,0.6-1.2c0.2-0.4,0.3-0.8,0.5-1.2c0.3-0.5,0.5-0.9,0.8-1.3
				C61,65.3,61.2,64.8,61.4,64.3z M45.8,93.2c-0.2,0-0.5,0.1-0.7,0.2c-0.3,0.1-0.6,0.3-0.9,0.5c-0.3,0.2-0.6,0.4-0.9,0.7l-1.1,1.3
				c-0.3,0.4-0.6,0.7-0.9,1.1c-0.3,0.4-0.5,0.7-0.7,1c-0.2,0.4-0.5,0.7-0.7,1.1c-0.2,0.4-0.4,0.7-0.5,1.1c-0.2,0.4-0.4,0.7-0.6,1.1
				c-0.2,0.3-0.3,0.7-0.5,1.2l-0.7,1.3l0.4-0.1c0.1-0.2,0.3-0.4,0.6-0.6c0.2-0.2,0.4-0.4,0.5-0.5c0.1-0.1,0.2-0.3,0.4-0.5
				c0.6-0.6,1.2-1.3,1.7-2c0.5-0.7,1.1-1.4,1.6-2.2C44,96.4,45,95,46,93.5L45.8,93.2C45.8,93.3,45.8,93.2,45.8,93.2z"/>
			<path d="M71,88.1l0.2,0c0.2,0,0.5,0,0.8,0.1c0.4,0.1,0.7,0.1,0.9,0.2c0.2,0.1,0.4,0.2,0.5,0.4c0.2,0.2,0.3,0.5,0.3,0.8
				c0.1,0.2,0.1,0.4,0,0.6c-0.1,0.2-0.1,0.4-0.1,0.5c0,0.3,0,0.5-0.1,0.6c-0.1,0.2-0.2,0.4-0.3,0.6c-0.1,0.2-0.2,0.4-0.3,0.5
				c-0.1,0.1-0.2,0.3-0.3,0.5c-0.5,0.8-1.1,1.4-1.8,2c-0.7,0.5-1.3,1.1-2,1.5c-0.2,0.1-0.4,0.1-0.6,0.2c-0.2,0.1-0.4,0.2-0.6,0.2
				c0,0.1-0.3,0.2-0.8,0.4c0,0-0.1,0.1-0.2,0.1c0,0-0.1,0-0.2,0.1l-0.5,0c-0.1,0-0.2,0-0.2,0c0,0-0.1,0-0.2,0c0,0,0,0-0.2-0.1
				c0,0.4-0.1,0.7-0.2,1c-0.1,0.3-0.1,0.6,0,0.9c0.1,0.2,0.1,0.4,0,0.8c0,0.3,0.1,0.6,0.2,0.7l0.6,0.6c0.1,0.1,0.2,0.1,0.5,0.1
				c0.2,0,0.4,0,0.5,0.1c0.9,0,1.7-0.2,2.6-0.5c0.7-0.3,1.6-0.7,2.5-1.1c0.9-0.4,1.8-0.8,2.7-1.3c0.2-0.2,0.4-0.3,0.7-0.4
				c0.2-0.1,0.5-0.2,0.7-0.4l2.5-1.8l2.6-1.9l2-1.6c0.1-0.1,0.3-0.1,0.5-0.1l0.3,0c0.2,0.1,0.3,0.1,0.2,0.1c0,0,0,0,0.1,0.1
				c0.1,0.1,0.1,0.2,0.1,0.4c-0.1,0.2,0,0.3,0.1,0.5l-0.1,0.3c-0.1,0.1-0.3,0.3-0.7,0.6c-0.4,0.3-0.6,0.5-0.6,0.6
				c-0.1,0.1-0.1,0.2-0.2,0.2s-0.2,0.1-0.4,0.4c-0.2,0.3-0.7,0.7-1.3,1.1c-0.6,0.4-1,0.7-1.3,1c-0.3,0.2-0.6,0.4-1,0.7
				c-0.4,0.3-0.8,0.6-1.2,0.9c-0.4,0.3-0.8,0.6-1.2,0.8c-0.4,0.2-0.7,0.4-0.9,0.5c-0.6,0.4-1.1,0.7-1.5,0.9s-0.8,0.5-1.3,0.7
				l-2.3,0.9c-0.3,0.1-0.7,0.1-1.1,0.2c-0.4,0.1-0.7,0.1-0.9,0.2c-0.3-0.1-0.6-0.1-0.8,0c-0.2,0.1-0.5,0-0.8,0c-0.2,0.1-0.4,0-0.6,0
				c-0.2-0.1-0.4-0.1-0.6-0.2c-0.2-0.1-0.4-0.2-0.7-0.2c-0.2-0.1-0.4-0.2-0.6-0.3c-0.1-0.1-0.4-0.3-0.7-0.4
				c-0.3-0.1-0.5-0.3-0.6-0.5c-0.1-0.1-0.2-0.4-0.4-0.8c-0.2-0.5-0.3-1.1-0.3-1.7c0.1-0.6,0.1-1.1,0.1-1.5c0-0.1,0-0.4,0.2-0.7
				c0.3-1.3,0.9-2.5,1.8-3.7c0.9-1.1,1.9-2.2,2.9-3.1c0.3-0.4,0.7-0.7,1.1-0.9c0.4-0.2,0.8-0.5,1.1-0.7c0.3-0.2,0.5-0.3,0.6-0.3
				L71,88.1z M69.3,91.8c-0.2,0.2-0.4,0.5-0.7,0.7c-0.3,0.3-0.5,0.5-0.7,0.7c-0.3,0.3-0.5,0.6-0.7,0.8c-0.2,0.3-0.4,0.6-0.7,0.9
				c0,0.2-0.1,0.5-0.4,0.7l0.8-0.4c0.1-0.1,0.2-0.2,0.3-0.2s0.2-0.1,0.3-0.2c0.3-0.1,0.5-0.3,0.7-0.4c0.2-0.1,0.4-0.3,0.6-0.4
				c0.1-0.1,0.3-0.3,0.4-0.5c0.1-0.2,0.3-0.3,0.6-0.5c0.2-0.2,0.3-0.3,0.4-0.5c0.1-0.1,0.2-0.3,0.3-0.6l0.4-0.9l0.1-0.3
				c-0.2,0.1-0.3,0.2-0.4,0.2c-0.1,0-0.2,0.1-0.3,0.2L69.3,91.8z"/>
			<path d="M102.4,87.4l0.1,0l0.1,0.1c0.3,0,0.5,0.1,0.6,0.3c0.4,0.1,0.6,0.3,0.7,0.6c0.1,0.2,0.1,0.3,0,0.4
				c-0.1,0.2-0.2,0.4-0.3,0.6c-0.1,0.2-0.1,0.4-0.2,0.6c-0.2,0.4-0.4,0.7-0.5,1.1c-0.1,0.4-0.3,0.8-0.5,1.1c-0.1,0.3-0.2,0.6-0.3,1
				c-0.1,0.4-0.3,0.7-0.4,1l-0.9,2.2c-0.2,0.4-0.4,0.7-0.5,1.1c-0.1,0.3-0.3,0.7-0.4,1.1c-0.1,0.3-0.2,0.5-0.3,0.8s-0.1,0.5-0.2,0.8
				c0,0.1,0,0.2,0.1,0.3c0,0,0,0.1,0,0.2c0.1,0,0.2,0,0.3,0c0.1,0,0.2,0,0.3,0c0.1-0.1,0.3-0.1,0.4-0.1c0.2,0,0.3-0.1,0.4-0.2
				c0.2-0.1,0.4-0.2,0.6-0.3c0.2-0.1,0.4-0.2,0.6-0.4c0.7-0.3,1.4-0.7,2.1-1.1c0.7-0.4,1.3-0.8,2-1.2c0.2-0.2,0.3-0.3,0.5-0.5
				c0.1-0.1,0.3-0.2,0.5-0.3c0.3-0.1,0.5-0.3,0.6-0.4c0.1-0.1,0.3-0.2,0.5-0.4l2-1.4c0.3-0.3,0.7-0.6,1-0.8c0.4-0.3,0.7-0.5,1-0.8
				c0.4-0.2,0.9-0.6,1.4-1.1c0.6-0.5,1-0.9,1.4-1.2c0.1-0.1,0.3,0,0.5,0c0.1,0,0.2,0.1,0.2,0.1c0.1,0,0.1,0.1,0.2,0.2
				c0.2,0.2,0.3,0.4,0.2,0.5c-0.2,0.3-0.4,0.5-0.5,0.6s-0.2,0.3-0.4,0.4c-0.1,0.1-0.2,0.2-0.2,0.3c-0.7,0.6-1.2,1.1-1.7,1.5
				c-0.5,0.4-1.1,0.9-1.8,1.4c-0.3,0.2-0.7,0.5-1,0.7c-0.3,0.3-0.7,0.5-1,0.8c-0.4,0.2-0.8,0.5-1.1,0.7c-0.3,0.2-0.6,0.5-0.9,0.7
				l-2,1.4c-0.3,0.2-0.7,0.5-1,0.6c-0.3,0.2-0.7,0.4-1.2,0.7c-0.3,0.2-0.7,0.4-1,0.6c-0.3,0.2-0.8,0.3-1.2,0.5
				c-0.4,0.2-0.8,0.3-1.3,0.3s-0.9-0.1-1.3-0.3c-0.1-0.1-0.3-0.1-0.4-0.1c-0.1,0-0.2-0.1-0.3-0.2c0-0.1-0.1-0.1-0.2-0.1
				c-0.1,0-0.1,0-0.2-0.1c-0.1-0.1-0.2-0.2-0.3-0.3c0-0.1-0.1-0.2-0.2-0.3c-0.2-0.3-0.3-0.6-0.2-0.8c-0.1-0.2-0.2-0.5-0.1-0.8l0-0.4
				l0.3-1.1c0.1-0.4,0.2-0.7,0.4-1.1s0.3-0.8,0.5-1.1c0.1-0.4,0.2-0.7,0.3-1.1c0.2-0.4,0.3-0.7,0.5-1.1l1.1-2.1
				c0.2-0.3,0.4-0.6,0.6-1c0.2-0.3,0.4-0.7,0.6-1c0.2-0.4,0.3-0.7,0.5-1.1c0.2-0.4,0.3-0.7,0.5-1.1L102.4,87.4z M105.4,79.3
				c0,0,0.1,0.1,0.3,0.1c0.2,0.1,0.3,0.1,0.5,0.2c0.2,0,0.3,0.1,0.4,0.2c0.1,0.1,0.2,0.3,0.3,0.4c0.1,0.1,0.2,0.3,0.3,0.5
				c0.1,0.2,0.1,0.3,0,0.5l-1.7,3.7c0,0.1-0.2,0.1-0.4,0.2l-0.3,0c-0.4-0.1-0.6-0.2-0.8-0.4c-0.3-0.2-0.4-0.3-0.5-0.6
				c-0.1,0-0.2-0.2-0.3-0.5c0.4-1.3,0.9-2.6,1.6-3.9L105.4,79.3z"/>
			<path d="M118.3,85.4c0.1-0.2,0.1-0.3,0.2-0.3c0.1,0,0.2,0,0.4,0l0.1,0c0.4,0,0.6,0.1,0.9,0.3c0.2,0.1,0.4,0.2,0.5,0.4
				c0.1,0.2,0.2,0.4,0.3,0.6c0.1,0.2,0,0.4-0.1,0.7c-0.2,0.4-0.3,0.7-0.5,1.1c-0.2,0.4-0.4,0.8-0.7,1.2c-0.2,0.5-0.4,0.9-0.6,1.2
				c-0.2,0.3-0.4,0.6-0.5,0.9c-0.2,0.3-0.3,0.6-0.5,0.9c-0.2,0.3-0.4,0.7-0.7,1.2c0,0-0.1,0-0.1,0.1c0,0.1-0.1,0.2-0.1,0.2
				c0.3-0.2,0.5-0.5,0.7-0.7c0.2-0.2,0.4-0.4,0.5-0.7c0.4-0.3,0.8-0.6,1.2-0.9c0.4-0.3,0.8-0.6,1.2-1c0.4-0.3,0.8-0.7,1.2-1
				c0.4-0.4,0.8-0.6,1.1-0.9l1.7-1c0.1-0.1,0.2-0.2,0.3-0.2c0.1,0,0.2-0.1,0.3-0.1c0,0,0.1-0.1,0.1-0.1c0.2-0.1,0.3-0.2,0.5-0.2
				c0.6,0.2,1.1,0.6,1.3,1.1c0.2,0.1,0.3,0.5,0.3,1l-0.1,1c-0.1,0.4-0.1,0.8-0.2,1.2c-0.1,0.4-0.2,0.9-0.4,1.4l-0.2,1.3
				c-0.1,0.4-0.1,0.7-0.1,1c0,0.3,0,0.6,0,0.9l0,0.7l0.1,0c0,0,0,0.1,0.1,0.1l0.1,0c0.1,0,0.2,0,0.3,0.1c0.2,0,0.3,0,0.5,0.1
				c0.3-0.1,0.7-0.1,1-0.2c0.3-0.1,0.7-0.2,1.1-0.5c0.3-0.1,0.7-0.2,0.9-0.3c0.3-0.1,0.6-0.3,0.9-0.4c0.3-0.2,0.6-0.4,0.9-0.6
				s0.6-0.3,1-0.6c0.3-0.2,0.6-0.4,0.8-0.6c0.3-0.2,0.5-0.4,0.9-0.6c0.2-0.1,0.4-0.3,0.7-0.4c0.2-0.1,0.5-0.3,0.7-0.6
				c0.2-0.1,0.3-0.2,0.4-0.3c0.1,0,0.2-0.1,0.3-0.1c0.1,0,0.2-0.1,0.3-0.1c0.1-0.1,0.3-0.2,0.5-0.4c0.3-0.2,0.4-0.3,0.4-0.4
				c0,0,0.2-0.2,0.4-0.4c0.2-0.1,0.3-0.2,0.4-0.2c0,0,0.1-0.1,0.3-0.3c0.3-0.2,0.5-0.4,0.6-0.5c0.1-0.1,0.4-0.3,0.7-0.5l0.5,0
				c0.1,0,0.1,0.1,0,0.2c-0.1,0.1,0,0.2,0.2,0.2c0.1,0.1,0.1,0.2,0.1,0.5c0,0.2,0,0.5,0,0.7c0,0,0,0.1-0.1,0.1
				c-0.1,0.1-0.1,0.1-0.2,0.1c-0.2,0.2-0.3,0.3-0.3,0.3c0,0-0.1,0.1-0.3,0.2c-0.2,0.1-0.3,0.2-0.3,0.2c0,0-0.1,0.1-0.3,0.3
				c-0.3,0.2-0.5,0.4-0.6,0.5c-0.1,0.1-0.3,0.3-0.6,0.5c-0.3,0.2-0.4,0.4-0.5,0.4c-0.1,0-0.1,0.1-0.2,0.1c0,0-0.1,0.1-0.2,0.1
				c-0.1,0-0.3,0.2-0.6,0.4l-2,1.4c-0.3,0.2-0.5,0.4-0.8,0.6c-0.3,0.1-0.6,0.3-0.9,0.5c-0.3,0.2-0.6,0.4-0.9,0.6
				c-0.3,0.1-0.6,0.3-0.9,0.5c-0.3,0.1-0.7,0.2-1,0.4c-0.3,0.1-0.7,0.2-1,0.4c-0.4,0-0.7,0-1,0.1c-0.3,0-0.7,0-1.1,0
				c-0.1,0-0.2,0-0.4,0c-0.2,0-0.3-0.1-0.4-0.2l-1-0.5c-0.2-0.1-0.3-0.2-0.4-0.3c-0.1-0.1-0.3-0.3-0.5-0.4c-0.1-0.2-0.1-0.3-0.2-0.5
				c-0.1-0.1-0.1-0.3-0.2-0.4c0-0.2,0-0.4,0-0.5c-0.1-0.1-0.1-0.3-0.1-0.5c0.1-0.4,0.1-0.8,0.1-0.9c0-0.5,0.1-1,0.2-1.5
				c0.1-0.5,0.2-0.9,0.3-1.3c0-0.2,0-0.4,0-0.6c0-0.2,0.1-0.4,0.2-0.7c-0.2,0.2-0.4,0.3-0.6,0.5c-0.2,0.1-0.4,0.3-0.4,0.5
				c-0.3,0.2-0.7,0.5-1,0.7c-0.4,0.2-0.7,0.5-1,0.8c-0.8,0.7-1.6,1.5-2.4,2.4c-0.8,0.9-1.5,1.8-2.3,2.5c-0.2,0.2-0.4,0.4-0.6,0.6
				c-0.2,0.2-0.4,0.4-0.6,0.6c-0.1,0.2-0.2,0.4-0.4,0.5c-0.2,0.1-0.3,0.2-0.5,0.4c-0.5,0.6-1,0.9-1.4,1.1c-0.3,0.1-0.5,0.2-0.8,0.2
				c-0.1,0-0.3-0.1-0.4-0.1c-0.2,0-0.3-0.1-0.4-0.2c0,0-0.1,0-0.1-0.1c0-0.1-0.1-0.1-0.2-0.2l-0.5-0.6c0-0.1,0-0.2-0.1-0.3
				c-0.1-0.1-0.1-0.2-0.1-0.3c0-0.2,0.1-0.4,0.2-0.6c0.1-0.2,0.2-0.4,0.3-0.7l0.6-1.5c0.6-0.9,1.1-1.9,1.7-3c0.6-1.1,1.1-2.1,1.5-3
				c0.2-0.2,0.3-0.4,0.3-0.5c0.1-0.1,0.1-0.2,0.2-0.2c0,0,0.1-0.1,0.2-0.2c0.1-0.1,0.2-0.2,0.3-0.5l0.8-1.5L118.3,85.4z"/>
			<path d="M164.1,82c0.4,0,0.7,0,1.1,0.2c0.2,0,0.4,0.1,0.5,0.2c0.1,0.1,0.3,0.2,0.4,0.2c0.1,0.1,0.2,0.2,0.2,0.3
				c0,0.1,0.1,0.2,0.2,0.3c0.1,0.2,0.2,0.3,0.3,0.4c0.1,0.1,0.1,0.3,0.2,0.5c0.1,0.3,0.1,0.5,0,0.8c-0.1,0.2-0.2,0.5-0.3,0.8
				c-0.2,0.5-0.4,1-0.7,1.5c-0.3,0.5-0.6,1-0.9,1.5c-0.2,0.2-0.4,0.3-0.6,0.3c-0.2,0-0.4,0.1-0.6,0.1c-0.2,0-0.3,0-0.3,0
				c0,0-0.2-0.1-0.4-0.2c-0.2-0.1-0.4-0.2-0.5-0.3c-0.1-0.1-0.2-0.3-0.3-0.5c-0.1-0.2-0.1-0.4,0-0.6l0.8-1.4
				c0.4-0.5,0.6-1.2,0.8-1.8l0.1-0.1l-0.6,0.2c-0.7,0.2-1.3,0.4-1.8,0.7c-0.6,0.3-1.1,0.7-1.7,1.1c-0.2,0.2-0.3,0.4-0.5,0.5
				c-0.2,0.1-0.3,0.3-0.4,0.6c0,0.1-0.1,0.3-0.1,0.4c0,0.2,0,0.3,0,0.4c0.1,0.2,0.1,0.4,0.2,0.6c0.1,0.2,0.2,0.4,0.3,0.6
				c0.2,0.1,0.3,0.3,0.4,0.5c0.1,0.2,0.2,0.4,0.4,0.6l2.1,2.9l0.2,0.3c0.5-0.2,1-0.4,1.5-0.6c0.5-0.1,0.9-0.3,1.3-0.6
				c0.4-0.2,0.9-0.4,1.4-0.6c0.5-0.2,1-0.4,1.5-0.7c0.3-0.1,0.5-0.2,0.8-0.3c0.3-0.1,0.6-0.3,0.9-0.4c0.2-0.1,0.3-0.2,0.5-0.3
				c0.1-0.1,0.3-0.2,0.5-0.3c0.4-0.2,0.7-0.4,1.1-0.6c0.3-0.2,0.7-0.4,1-0.5c0.3-0.1,0.6-0.3,0.9-0.5c0.3-0.2,0.6-0.3,0.9-0.4
				c0.3-0.1,0.4-0.1,0.5,0c0.1,0.1,0.2,0.2,0.4,0.4c0.1,0.1,0.1,0.3,0,0.5c-0.1,0.2-0.3,0.4-0.4,0.6l-1,0.5l-0.9,0.5l-0.4,0.2
				l-1.5,0.7l-0.8,0.4c-0.6,0.3-1.2,0.6-1.9,0.9c-0.6,0.3-1.3,0.5-1.9,0.8c-0.6,0.3-1.1,0.5-1.6,0.7c-0.5,0.2-1,0.5-1.5,0.7l-0.1,0
				c0,0-0.1,0.1-0.2,0.1l0.2,0.3c0.1,0.2,0.1,0.4,0.2,0.6c0.1,0.2,0.1,0.4,0.1,0.6c0.1,0.9-0.2,1.8-0.7,2.5c-0.6,0.8-1.3,1.5-2.2,2
				c-0.9,0.5-1.8,1-2.8,1.3c-1.2,0.4-2.3,0.7-3.3,0.7c-0.5,0-0.9,0-1.4-0.1c-0.4-0.1-0.8-0.3-1.1-0.5l-0.2-0.1l-0.1-0.1
				c-0.1-0.1-0.2-0.2-0.3-0.4c-0.1-0.2-0.1-0.3-0.2-0.4c0-0.1,0.1-0.2,0-0.3c0-0.1,0-0.2,0.1-0.4c0.1-0.3,0.2-0.5,0.4-0.7
				c0.2-0.2,0.4-0.4,0.6-0.6l1.1-1.1c0.8-0.7,1.5-1.2,2.2-1.6c0.2-0.1,0.4-0.2,0.6-0.3c0.2-0.1,0.4-0.3,0.6-0.4c0.1,0,0.3,0,0.4-0.1
				c0.1-0.1,0.3-0.2,0.3-0.2l1.4-0.7c0.3-0.1,0.5-0.2,0.6-0.4l0.1-0.1c-0.1-0.3-0.3-0.6-0.5-0.8c-0.2-0.2-0.4-0.5-0.7-0.9
				c-0.1-0.1-0.2-0.3-0.4-0.6c-0.2-0.3-0.4-0.6-0.6-1c-0.2-0.3-0.5-0.7-0.7-1c-0.2-0.3-0.3-0.5-0.4-0.7c-0.2-0.1-0.3-0.2-0.3-0.4
				c0-0.1-0.1-0.3-0.2-0.5l-0.3-0.6c-0.1-0.2-0.2-0.5-0.2-0.8c-0.1-0.3,0-0.8,0.3-1.3c0.3-0.5,0.7-1,1.2-1.4l1.1-0.9
				c0.6-0.3,1.2-0.7,1.7-1c0.6-0.3,1.1-0.5,1.7-0.6c0.3-0.1,0.7-0.2,1-0.2L164.1,82z M153.5,101.7l0.1,0l0,0.1l0.2,0
				c0.3-0.1,0.6-0.1,0.8-0.2c0.2-0.1,0.5-0.1,0.8-0.2c0.3-0.1,0.7-0.2,1.1-0.3c0.4-0.2,0.7-0.3,1-0.5c0.3-0.2,0.7-0.3,1-0.5
				c0.3-0.2,0.6-0.4,0.9-0.6c0.5-0.5,0.9-0.9,1.3-1.4c0.3-0.5,0.5-1.1,0.3-1.8l-1.1,0.5l-1.3,0.7l-1.7,1c-0.5,0.3-1,0.7-1.4,1
				s-0.8,0.7-1.2,1.2c-0.3,0.2-0.4,0.4-0.6,0.6c0.1,0,0.1,0-0.1,0.1s-0.2,0.2-0.3,0.2L153.5,101.7z"/>
			<path d="M190.4,59.6c0.6,0.3,1,0.6,1.1,0.8c0.1,0.2,0,0.7-0.3,1.3c-0.7,1.4-1.3,2.8-1.8,4.2c-0.6,1.4-1.2,2.7-2.1,4l-0.8,1.4
				c0.2-0.1,0.4-0.1,0.7-0.1c0.2,0,0.5,0,0.7,0c0.7-0.1,1.4-0.2,2-0.3c0.7-0.1,1.3-0.1,2-0.2c0.4,0,0.7,0,1,0c0.3,0,0.6,0.1,0.9,0.3
				c0.1,0.1,0.3,0.2,0.4,0.3c0.1,0.1,0.2,0.2,0.3,0.3c0.3,0.6,0.1,0.9-0.5,0.9c-0.4,0.1-0.8,0.2-1.2,0.2c-0.4,0-0.9,0.1-1.3,0.2
				c-1,0.1-2.1,0.3-3.1,0.4c-1,0.1-2,0.3-3,0.4c-0.5,0-0.7,0.2-0.7,0.6c-0.5,0.8-1,1.6-1.5,2.4c-0.5,0.8-0.9,1.6-1.4,2.4
				c-0.6,1.3-1.2,2.5-1.8,3.8c-0.6,1.2-1.2,2.5-1.7,3.8c-0.6,1.1-1.1,2.3-1.5,3.4c-0.4,1.1-0.9,2.3-1.2,3.4
				c-0.2,0.4-0.3,0.8-0.4,1.2c-0.1,0.4-0.2,0.8-0.2,1.2c0.2,0.4,0.2,0.9,0.1,1.3c0,0.4,0.1,0.6,0.2,0.7c0.1,0.1,0.3,0.1,0.7,0.1
				c0.5,0,1-0.1,1.4-0.2c0.5-0.1,0.9-0.2,1.2-0.4c1-0.4,2-0.9,2.9-1.4c0.9-0.6,1.8-1.1,2.7-1.6c1.4-0.9,2.6-1.8,3.6-2.7
				c1.1-0.9,2.1-1.9,3.2-2.9c0.5-0.5,1-0.9,1.4-1.4c0.4-0.4,0.9-0.9,1.3-1.4c0.5-0.5,0.8-0.6,1.1-0.5c0.3,0.1,0.4,0.5,0.4,0.9
				c0,0.2,0.1,0.4,0.1,0.4c0.1,0.1,0,0.1-0.1,0.2c-0.1,0.2-0.2,0.4-0.2,0.5c0,0.1-0.2,0.3-0.5,0.5c-1.3,1.4-2.6,2.7-3.9,3.9
				c-1.3,1.2-2.8,2.4-4.4,3.5c-0.7,0.5-1.6,1.1-2.5,1.8c-1,0.7-1.8,1.2-2.7,1.6c-0.6,0.3-1.3,0.5-2,0.8c-0.7,0.3-1.4,0.4-2.2,0.4
				c-1.3,0.2-2.4-0.2-3.4-1.1c-0.4-0.3-0.6-0.9-0.7-1.6c-0.3-0.6-0.3-1.3-0.1-2c0.2-0.7,0.4-1.4,0.5-2c0.2-1.5,0.7-3.2,1.4-5
				c0.7-1.8,1.5-3.6,2.2-5.3c0.5-1.2,1.2-2.5,2-3.9c0.8-1.4,1.5-2.7,2.2-4l0.3-0.5c0.1-0.1,0.1-0.2,0.1-0.2
				c-0.2-0.1-0.3-0.1-0.3-0.1c-0.3,0.1-0.7,0.2-1.1,0.2c-0.4,0-0.8,0.1-1.1,0.2c-0.9,0.2-1.8,0.4-2.6,0.6c-0.8,0.2-1.7,0.4-2.4,0.6
				c-0.4,0.1-0.9,0.1-1.3-0.1c-0.4-0.2-0.7-0.5-0.9-0.8c-0.3-0.6-0.2-0.9,0.2-0.9c0.7-0.2,1.2-0.3,1.8-0.5c0.5-0.1,1.1-0.3,1.6-0.4
				c1.3-0.3,2.5-0.5,3.7-0.7c1.2-0.2,2.4-0.4,3.7-0.6c0.4-0.1,0.6-0.2,0.7-0.4c1.3-1.8,2.5-3.7,3.5-5.5c1-1.9,2-3.8,3.1-5.7
				c0.1-0.1,0.2-0.3,0.3-0.3c0.1-0.1,0.2-0.2,0.3-0.3L190.4,59.6z"/>
			<path d="M202.1,84.2c0.2-0.2,0.4-0.5,0.7-0.8c0.3-0.3,0.6-0.5,0.9-0.8l0.2-0.5c0-0.1,0.1-0.2,0.3-0.2c0.1-0.1,0.3-0.1,0.4-0.1
				l0.3,0l0.1,0.1c0,0,0.1,0,0.1,0c0,0,0,0,0.1,0c0.2,0.1,0.4,0.2,0.6,0.3c0.2,0.1,0.4,0.3,0.5,0.6c0,0.3,0,0.5,0,0.6
				c-0.8,1.5-1.5,2.9-2.2,4.3c-0.7,1.4-1.4,2.8-2,4.1c-0.1,0.3-0.2,0.6-0.3,1c-0.2,0.4-0.3,0.9-0.5,1.3c-0.2,0.5-0.4,0.9-0.5,1.3
				c-0.2,0.4-0.3,0.7-0.3,1c0,0,0.1-0.1,0.2,0c0.1,0,0.2,0,0.2,0c0.3-0.4,0.7-0.8,1.1-1.1c0.6-0.5,1.1-0.9,1.5-1.1
				c0.4-0.2,0.8-0.5,1.1-0.9c0.2-0.2,0.4-0.4,0.7-0.6c0.3-0.1,0.5-0.3,0.7-0.4c0.2-0.1,0.5-0.3,0.9-0.5c0.4-0.3,0.9-0.6,1.3-0.9
				c0.5-0.3,0.9-0.6,1.3-0.9c0.4-0.3,0.7-0.5,0.9-0.7c0.3-0.2,0.6-0.3,0.9-0.6c0.3-0.2,0.5-0.4,0.8-0.6c0.3-0.2,0.8-0.5,1.2-0.9
				c0.5-0.4,0.9-0.6,1.2-0.7c0.4-0.3,0.8-0.5,1-0.5c0.2,0,0.4,0.3,0.3,0.9c0.1,0.1,0.1,0.2,0.2,0.4c0,0.2,0,0.3-0.1,0.3
				c-0.3,0.2-0.5,0.4-0.6,0.5c-0.1,0.1-0.3,0.3-0.6,0.5c-0.8,0.4-1.6,1-2.5,1.6c-0.9,0.6-1.7,1.2-2.5,1.6c-0.4,0.2-0.8,0.5-1.4,0.9
				s-1.1,0.7-1.6,1.1c-0.5,0.4-1.1,0.8-1.6,1.1c-0.5,0.4-1,0.7-1.3,1c-0.1,0.2-0.3,0.4-0.5,0.6c-0.2,0.2-0.5,0.4-0.7,0.5
				c-0.3,0.2-0.7,0.5-1.2,0.8c-0.5,0.4-0.9,0.8-1.4,1.4c-0.2,0.1-0.4,0.3-0.6,0.6c-0.3,0.2-0.4,0.4-0.6,0.6
				c-0.2,0.3-0.3,0.6-0.4,0.8c-0.1,0.2-0.2,0.4-0.3,0.6c-0.3,0.7-0.6,1.2-0.8,1.6c-0.2,0.4-0.4,0.9-0.6,1.7c-0.4,0.5-0.7,1.1-1,1.8
				c-0.3,0.6-0.5,1.3-0.8,1.9c-0.3,0.7-0.6,1.4-0.9,2.1c-0.3,0.7-0.6,1.3-0.8,1.9c-0.3,0.7-0.6,1.4-0.8,2.1c-0.2,0.7-0.5,1.4-0.7,2
				c-0.3,1-0.6,1.8-0.9,2.3c-0.2,0.5-0.5,1.1-0.8,1.9c-0.2,0.3-0.3,0.6-0.3,0.8c-0.1,0.1-0.1,0.3-0.2,0.4c-0.1,0.2-0.1,0.3-0.2,0.4
				l-0.5,0.6c-0.1,0.1-0.2,0.2-0.2,0.3c0,0.1-0.1,0.2-0.3,0.3c-0.1,0.1-0.2,0.2-0.3,0.2c-0.1,0-0.2,0.1-0.3,0.2
				c-0.1,0.1-0.3,0.1-0.5,0.2c-0.2,0-0.4,0-0.7,0c-0.2,0-0.4,0-0.5,0c-0.1,0-0.3-0.1-0.5-0.3c-0.4-0.1-0.6-0.2-0.7-0.3
				c-0.1-0.1-0.2-0.2-0.3-0.4c-0.2-0.3-0.4-0.6-0.6-0.7c-0.1-0.2-0.2-0.4-0.3-0.5c-0.1-0.1-0.2-0.3-0.2-0.5
				c-0.2-0.5-0.4-0.9-0.6-1.4c-0.2-0.4-0.2-0.9-0.3-1.4c-0.1-0.5-0.2-0.9-0.2-1.4c0-0.4,0-0.9,0-1.5c0.1-0.5,0.2-1,0.3-1.5
				c0.1-0.5,0.3-1,0.6-1.5c0.2-0.5,0.5-0.9,0.7-1.3c0.2-0.4,0.5-0.8,0.8-1.3c0.1-0.2,0.3-0.5,0.6-0.9c0.3-0.4,0.6-0.8,1-1.2
				c0.4-0.4,0.8-0.9,1.2-1.3c0.4-0.4,0.8-0.8,1.2-1.2c1.1-1.1,2.3-2.1,3.4-3.1c1.2-1,2.3-1.9,3.6-2.7c0.1-0.1,0.2-0.2,0.2-0.2
				c0,0,0.1,0,0.2-0.1c0.4-0.7,0.7-1.4,0.9-2.1c0.2-0.7,0.5-1.3,0.7-1.8c0.3-0.8,0.6-1.5,0.9-2.3c0.3-0.7,0.6-1.5,0.9-2.2l0.7-1.4
				l-1.5,1.5c-0.2,0.2-0.5,0.5-0.9,0.9c-0.4,0.4-0.9,0.8-1.4,1.3c-0.5,0.4-1,0.9-1.4,1.2c-0.4,0.4-0.7,0.6-0.9,0.8
				c-0.5,0.5-0.9,0.8-1.4,1.1c-0.2,0.1-0.4,0.2-0.7,0.3c-0.2,0.1-0.5,0.1-0.7,0.1c-0.1,0-0.3,0-0.4-0.1c-0.3,0-0.5-0.1-0.6-0.2
				l-0.3-0.3c-0.1-0.1-0.2-0.2-0.3-0.3s-0.2-0.2-0.3-0.3c0-0.1,0-0.3,0-0.5c0-0.5,0-1,0.2-1.3c0.1-0.2,0.2-0.4,0.3-0.6
				c0.1-0.2,0.2-0.4,0.2-0.5l0.8-2.3c0.1-0.1,0.2-0.4,0.4-0.7c0.2-0.4,0.3-0.7,0.4-1.1c0.1-0.4,0.3-0.8,0.4-1.1
				c0.1-0.4,0.2-0.6,0.3-0.8l0.3-1.1c0.1-0.2,0.1-0.3,0.2-0.5c0.1-0.1,0.1-0.3,0.3-0.5l0-0.5c0.1-0.1,0.2-0.2,0.2-0.5
				c0-0.2,0.1-0.4,0.1-0.6c0.1-0.2,0.1-0.3,0.1-0.6c0.1-0.3,0.2-0.5,0.5-0.5c0.2,0,0.5,0.1,0.6,0.2c0.4,0.1,0.7,0.4,0.8,0.7
				c0.1,0,0.2,0.1,0.2,0.4l-0.2,0.7c0,0.2,0,0.4,0,0.5c-0.1,0.2-0.1,0.4-0.2,0.6c0,0.2-0.1,0.4-0.2,0.7l-1,2.8
				c-0.2,0.4-0.3,0.7-0.4,1.1c-0.1,0.4-0.2,0.7-0.4,1.1c-0.1,0.4-0.2,0.8-0.4,1.2c-0.2,0.4-0.3,0.8-0.5,1.1l-0.5,1.2
				c0.1-0.1,0.3-0.1,0.4-0.3c0.3-0.3,0.6-0.5,0.9-0.6c0.3-0.1,0.5-0.4,0.8-0.6c0.1,0,0.3-0.2,0.7-0.6s0.7-0.7,1.1-1.1
				c0.4-0.4,0.8-0.8,1.1-1.1c0.3-0.3,0.5-0.5,0.6-0.6l3.2-3.6c0.2-0.3,0.4-0.6,0.6-0.8C201.4,84.8,201.7,84.5,202.1,84.2z
				 M194.5,103.4c0.1-0.3,0-0.3-0.2-0.1c-0.3,0.2-0.6,0.6-1,1c-0.4,0.4-0.9,0.9-1.4,1.4c-0.5,0.5-0.9,0.8-1.2,1.1
				c-0.6,0.6-1.2,1.3-1.8,2c-0.6,0.7-1.2,1.4-1.8,2c-0.4,0.8-0.8,1.5-1.2,2.2c-0.5,0.7-0.8,1.5-1,2.3l-0.2,2.4c0,0.4,0.1,0.7,0.1,1
				c0.1,0.3,0.1,0.7,0.2,0.9c0.1,0.3,0.2,0.5,0.4,0.8c0.1,0.3,0.3,0.5,0.4,0.7c0.1,0.2,0.3,0.3,0.4,0.4c0.2,0,0.3-0.1,0.4-0.3
				c0.1-0.2,0.2-0.5,0.4-0.8c0.2-0.3,0.3-0.6,0.4-0.8c0.2-0.5,0.5-1,0.6-1.6c0.2-0.6,0.4-1.1,0.8-1.7c0.3-0.7,0.6-1.4,0.8-2
				c0.2-0.7,0.5-1.3,0.7-2c0.3-0.6,0.6-1.2,0.8-1.8c0.2-0.6,0.5-1.2,0.8-2c0.3-0.7,0.6-1.3,0.9-1.9c0.3-0.6,0.6-1.3,0.9-1.9
				c0-0.2,0-0.3,0-0.2c0,0.1,0,0,0.1-0.2L194.5,103.4z"/>
			<path d="M227,59.1c0,0,0.1,0,0.1,0c0,0,0.1,0,0.1,0l0.1,0.1c0.2,0,0.4,0,0.4,0c0.1,0,0.1,0,0.2,0.1c0.4,0.2,0.7,0.5,0.8,0.7
				c0.1,0.1,0.1,0.3,0,0.4c0,0.2,0,0.4,0,0.5c0,0.1-0.1,0.3-0.1,0.5c-0.4,1.3-0.9,2.6-1.4,3.9s-1.1,2.5-1.7,3.8
				c-0.7,1.3-1.3,2.5-1.9,3.8c-0.6,1.3-1.3,2.6-2,3.9c-0.3,0.6-0.6,1.2-0.9,1.7c-0.3,0.5-0.6,1.1-0.9,1.8l-1.8,3.8
				c-0.3,0.6-0.6,1.3-0.8,2c-0.2,0.7-0.4,1.4-0.6,2.1c-0.2,0.4-0.3,0.7-0.4,1c-0.1,0.3-0.2,0.7-0.4,1c-0.1,0.2-0.1,0.4-0.2,0.6
				c0,0.2-0.1,0.3-0.1,0.5l-0.3,1.1c0,0.2,0,0.4-0.1,0.7c-0.1,0.2-0.1,0.4-0.2,0.7c0,0.2,0,0.5,0,0.7c0,0.2,0,0.5,0,0.7
				c0,0.2,0,0.3,0,0.4c0,0.1,0.1,0.2,0.1,0.4c0,0.1,0.1,0.2,0.1,0.3c0,0,0.1,0.1,0.2,0.1c0.5,0,1-0.1,1.5-0.3
				c0.7-0.1,1.3-0.3,1.9-0.6c0.6-0.3,1.2-0.6,1.7-1c0.6-0.4,1.2-0.8,1.8-1.2c0.6-0.4,1.2-0.9,1.8-1.4c0.5-0.4,1.1-0.9,1.6-1.4
				c0.5-0.5,1-1,1.6-1.5c0.4-0.4,0.7-0.7,0.9-0.8s0.5-0.4,0.8-0.8l2.1-2.1c0-0.1,0.1-0.2,0.3-0.2l0.4,0c0,0,0.1,0,0.1,0.1
				c0,0,0.1,0.1,0.1,0.1c0,0,0.1,0.1,0.1,0.1c0.3,0.1,0.5,0.3,0.6,0.6l0,0.3l-1.6,1.7c-0.2,0.3-0.3,0.4-0.3,0.5c0,0-0.1,0.2-0.4,0.4
				c-0.5,0.6-1,1.1-1.5,1.7c-0.5,0.4-0.9,0.8-1.3,1.1c-0.4,0.4-0.8,0.8-1.3,1.2c-0.5,0.4-0.9,0.8-1.4,1.2c-0.5,0.4-0.9,0.8-1.5,1.2
				c-0.4,0.4-0.9,0.7-1.4,1c-0.5,0.3-1,0.6-1.5,0.9l-1.7,0.8c-0.3,0.1-0.5,0.1-0.8,0.2c-0.3,0.1-0.5,0.2-0.7,0.2
				c-0.2,0-0.3,0-0.5,0.1c-0.1,0-0.3,0-0.5,0.1c-0.4,0-0.7,0-0.9,0l-0.5-0.2c-0.2-0.1-0.4-0.2-0.6-0.2c-0.1-0.1-0.1-0.2-0.1-0.3
				l-0.5-0.2c-0.1-0.2-0.3-0.3-0.4-0.4c-0.1-0.1-0.2-0.2-0.2-0.3c-0.1-0.2-0.2-0.3-0.3-0.4c-0.1-0.1-0.1-0.3-0.2-0.5
				c0-0.1,0-0.3-0.1-0.4c0-0.2-0.1-0.3-0.2-0.4l-0.1-1.4c0-0.1,0-0.2,0-0.3c0-0.1,0-0.2,0-0.4c0.1-0.3,0.1-0.7,0.2-1
				c0-0.4,0.1-0.7,0.2-1.1c0.1-0.4,0.2-0.7,0.3-1.2c0.1-0.4,0.3-0.8,0.4-1.2c0-0.4,0.1-0.7,0.2-1.1c0.1-0.4,0.3-0.8,0.4-1.2
				c0.2-0.3,0.3-0.6,0.4-1s0.3-0.7,0.5-1c0.1-0.3,0.3-0.6,0.4-0.9c0.2-0.3,0.3-0.7,0.4-1c0.2-0.6,0.5-1.2,0.8-1.7
				c0.4-0.6,0.7-1.1,1-1.7c0.3-0.7,0.7-1.3,1-1.9s0.7-1.2,1-1.9c0.3-0.6,0.6-1.2,1-1.8c0.3-0.6,0.7-1.2,1.1-1.8
				c0.3-0.6,0.6-1.2,0.9-1.7c0.3-0.5,0.6-1.1,1-1.8c0.2-0.3,0.4-0.6,0.5-1c0.1-0.3,0.3-0.7,0.4-1c0.2-0.4,0.3-0.7,0.4-1
				c0.1-0.3,0.2-0.6,0.4-0.9c0.1-0.4,0.2-0.7,0.3-1c0.2-0.3,0.3-0.6,0.3-1c0.1-0.2,0.1-0.3,0.2-0.4c0.1-0.1,0.1-0.3,0.1-0.4
				c0.1-0.3,0.2-0.5,0.3-0.7c0.1-0.2,0.2-0.4,0.3-0.7L227,59.1z"/>
			<path d="M237.2,79l0.2,0c0.2,0,0.5,0,0.8,0.1c0.4,0.1,0.7,0.1,0.9,0.2c0.2,0.1,0.4,0.2,0.5,0.4c0.2,0.2,0.3,0.5,0.3,0.8
				c0.1,0.2,0.1,0.4,0,0.6c-0.1,0.2-0.1,0.4-0.1,0.5c0,0.3,0,0.5-0.1,0.6c-0.1,0.2-0.2,0.4-0.3,0.6c-0.1,0.2-0.2,0.4-0.3,0.5
				c-0.1,0.1-0.2,0.3-0.3,0.5c-0.5,0.8-1.1,1.4-1.8,2c-0.7,0.5-1.3,1.1-2,1.5c-0.2,0.1-0.4,0.1-0.6,0.2c-0.2,0.1-0.4,0.2-0.6,0.2
				c0,0.1-0.3,0.2-0.8,0.4c0,0-0.1,0.1-0.2,0.1c0,0-0.1,0-0.2,0.1l-0.5,0c-0.1,0-0.2,0-0.2,0c0,0-0.1,0-0.2,0c0,0,0,0-0.2-0.1
				c0,0.4-0.1,0.7-0.2,1c-0.1,0.3-0.1,0.6,0,0.9c0.1,0.2,0.1,0.4,0,0.8c0,0.3,0.1,0.6,0.2,0.7l0.6,0.6c0.1,0.1,0.2,0.1,0.5,0.1
				c0.2,0,0.4,0,0.5,0.1c0.9,0,1.7-0.2,2.6-0.5c0.7-0.3,1.6-0.7,2.5-1.1c0.9-0.4,1.8-0.8,2.7-1.3c0.2-0.2,0.4-0.3,0.7-0.4
				c0.2-0.1,0.5-0.2,0.7-0.4l2.5-1.8l2.6-1.9l2-1.6c0.1-0.1,0.3-0.1,0.5-0.1l0.3,0c0.2,0.1,0.3,0.1,0.2,0.1c0,0,0,0,0.1,0.1
				c0.1,0.1,0.1,0.2,0.1,0.4c-0.1,0.2,0,0.3,0.1,0.5l-0.1,0.3c-0.1,0.1-0.3,0.3-0.7,0.6c-0.4,0.3-0.6,0.5-0.6,0.6
				c-0.1,0.1-0.1,0.2-0.2,0.2c0,0-0.2,0.1-0.4,0.4c-0.2,0.3-0.7,0.7-1.3,1.1c-0.6,0.4-1,0.7-1.3,1c-0.3,0.2-0.6,0.4-1,0.7
				c-0.4,0.3-0.8,0.6-1.2,0.9c-0.4,0.3-0.8,0.6-1.2,0.8c-0.4,0.2-0.7,0.4-0.9,0.5c-0.6,0.4-1.1,0.7-1.5,0.9
				c-0.4,0.2-0.8,0.5-1.3,0.7L237,94c-0.3,0.1-0.7,0.1-1.1,0.2c-0.4,0.1-0.7,0.1-0.9,0.2c-0.3-0.1-0.6-0.1-0.8,0
				c-0.2,0.1-0.5,0-0.8,0c-0.2,0.1-0.4,0-0.6,0c-0.2-0.1-0.4-0.1-0.6-0.2c-0.2-0.1-0.4-0.2-0.7-0.2c-0.2-0.1-0.4-0.2-0.6-0.3
				c-0.1-0.1-0.4-0.3-0.7-0.4s-0.5-0.3-0.6-0.5c-0.1-0.1-0.2-0.4-0.4-0.8c-0.2-0.5-0.3-1.1-0.3-1.7c0.1-0.6,0.1-1.1,0.1-1.5
				c0-0.1,0-0.4,0.2-0.7c0.3-1.3,0.9-2.5,1.8-3.7c0.9-1.1,1.9-2.2,2.9-3.1c0.3-0.4,0.7-0.7,1.1-0.9c0.4-0.2,0.8-0.5,1.1-0.7
				c0.3-0.2,0.5-0.3,0.6-0.3L237.2,79z M235.5,82.7c-0.2,0.2-0.4,0.5-0.7,0.7c-0.3,0.3-0.5,0.5-0.7,0.7c-0.3,0.3-0.5,0.6-0.7,0.8
				c-0.2,0.3-0.4,0.6-0.7,0.9c0,0.2-0.1,0.5-0.4,0.7l0.8-0.4c0.1-0.1,0.2-0.2,0.3-0.2c0.1-0.1,0.2-0.1,0.3-0.2
				c0.3-0.1,0.5-0.3,0.7-0.4c0.2-0.1,0.4-0.3,0.6-0.4c0.1-0.1,0.3-0.3,0.4-0.5c0.1-0.2,0.3-0.3,0.6-0.5c0.2-0.2,0.3-0.3,0.4-0.5
				c0.1-0.1,0.2-0.3,0.3-0.6l0.4-0.9l0.1-0.3c-0.2,0.1-0.3,0.2-0.4,0.2c-0.1,0-0.2,0.1-0.3,0.2L235.5,82.7z"/>
		</g>
	</g>
	<g class="st3">
		<g>
			<path class="st9" d="M87.4,115.6v1.1h-3.1v1.3h2.9v1h-2.9v1.5h3.2v1.1h-4.5v-5.9H87.4z"/>
			<path class="st9" d="M95.7,121.3c-0.4,0.2-0.9,0.3-1.4,0.3c-0.5,0-0.9-0.1-1.2-0.2c-0.4-0.2-0.7-0.4-0.9-0.7
				c-0.2-0.3-0.4-0.6-0.6-1c-0.1-0.4-0.2-0.8-0.2-1.2c0-0.4,0.1-0.9,0.2-1.2s0.3-0.7,0.6-1c0.2-0.3,0.6-0.5,0.9-0.7
				c0.4-0.2,0.8-0.2,1.2-0.2c0.5,0,0.9,0.1,1.2,0.2s0.7,0.4,0.9,0.7s0.4,0.6,0.6,1s0.2,0.8,0.2,1.2c0,0.4-0.1,0.8-0.2,1.2
				c-0.1,0.4-0.3,0.7-0.6,1l0.7,0.7l-0.6,0.6L95.7,121.3z M95.5,119.9c0.1-0.1,0.2-0.3,0.3-0.6c0.1-0.2,0.1-0.5,0.1-0.8
				c0-0.3,0-0.5-0.1-0.8s-0.2-0.5-0.3-0.7c-0.1-0.2-0.3-0.3-0.5-0.5c-0.2-0.1-0.5-0.2-0.7-0.2s-0.5,0.1-0.7,0.2s-0.4,0.3-0.5,0.5
				s-0.2,0.4-0.3,0.7s-0.1,0.5-0.1,0.8c0,0.2,0,0.5,0.1,0.7c0.1,0.2,0.2,0.4,0.3,0.6c0.1,0.2,0.3,0.3,0.5,0.5s0.5,0.2,0.7,0.2
				c0.1,0,0.2,0,0.3,0c0.1,0,0.1,0,0.2-0.1l-0.6-0.5l0.6-0.6L95.5,119.9z"/>
			<path class="st9" d="M105.8,121c-0.4,0.4-1.1,0.6-1.9,0.6c-0.8,0-1.4-0.2-1.9-0.6s-0.7-1-0.7-1.8v-3.7h1.3v3.7c0,0.2,0,0.3,0,0.5
				c0,0.2,0.1,0.3,0.2,0.4c0.1,0.1,0.2,0.2,0.4,0.3c0.2,0.1,0.4,0.1,0.6,0.1c0.5,0,0.8-0.1,1-0.3c0.2-0.2,0.3-0.5,0.3-1v-3.7h1.3
				v3.7C106.5,120,106.2,120.6,105.8,121z"/>
			<path class="st9" d="M115.3,115.6v1.1h-3.1v1.3h2.9v1h-2.9v1.5h3.2v1.1h-4.5v-5.9H115.3z"/>
			<path class="st9" d="M120.6,120c0.1,0.1,0.2,0.2,0.3,0.3s0.3,0.1,0.4,0.2c0.2,0,0.3,0.1,0.5,0.1c0.1,0,0.2,0,0.4,0
				s0.3-0.1,0.4-0.1s0.2-0.1,0.3-0.2c0.1-0.1,0.1-0.2,0.1-0.4c0-0.2-0.1-0.3-0.2-0.4s-0.2-0.2-0.4-0.2c-0.2-0.1-0.4-0.1-0.6-0.2
				s-0.4-0.1-0.6-0.2c-0.2-0.1-0.4-0.1-0.6-0.2c-0.2-0.1-0.4-0.2-0.6-0.3c-0.2-0.1-0.3-0.3-0.4-0.5c-0.1-0.2-0.2-0.4-0.2-0.7
				c0-0.3,0.1-0.6,0.2-0.8c0.1-0.2,0.3-0.4,0.5-0.6c0.2-0.1,0.4-0.3,0.7-0.3s0.5-0.1,0.8-0.1c0.3,0,0.6,0,0.9,0.1s0.5,0.2,0.8,0.3
				c0.2,0.2,0.4,0.4,0.5,0.6c0.1,0.2,0.2,0.5,0.2,0.9h-1.3c0-0.2,0-0.3-0.1-0.4s-0.1-0.2-0.3-0.3c-0.1-0.1-0.2-0.1-0.4-0.1
				c-0.1,0-0.3,0-0.4,0c-0.1,0-0.2,0-0.3,0c-0.1,0-0.2,0.1-0.3,0.1c-0.1,0.1-0.2,0.1-0.2,0.2c-0.1,0.1-0.1,0.2-0.1,0.3
				c0,0.1,0,0.2,0.1,0.3c0,0.1,0.1,0.1,0.3,0.2c0.1,0.1,0.3,0.1,0.5,0.2c0.2,0.1,0.5,0.1,0.9,0.2c0.1,0,0.3,0.1,0.5,0.1
				c0.2,0.1,0.4,0.2,0.6,0.3c0.2,0.1,0.4,0.3,0.5,0.5c0.1,0.2,0.2,0.5,0.2,0.8c0,0.3-0.1,0.5-0.2,0.8c-0.1,0.2-0.3,0.4-0.5,0.6
				c-0.2,0.2-0.5,0.3-0.8,0.4c-0.3,0.1-0.7,0.1-1.1,0.1c-0.3,0-0.6,0-1-0.1s-0.6-0.2-0.8-0.4c-0.2-0.2-0.4-0.4-0.6-0.7
				c-0.1-0.3-0.2-0.6-0.2-0.9h1.3C120.5,119.7,120.5,119.9,120.6,120z"/>
			<path class="st9" d="M127.8,116.7v-1.1h4.9v1.1h-1.8v4.8h-1.3v-4.8H127.8z"/>
			<path class="st9" d="M139.9,115.6c0.3,0,0.5,0,0.7,0.1s0.4,0.2,0.5,0.4s0.3,0.3,0.3,0.5c0.1,0.2,0.1,0.4,0.1,0.6
				c0,0.3-0.1,0.7-0.2,0.9c-0.1,0.3-0.4,0.4-0.7,0.6v0c0.2,0,0.3,0.1,0.4,0.2c0.1,0.1,0.2,0.2,0.3,0.3c0.1,0.1,0.1,0.3,0.1,0.4
				c0,0.1,0.1,0.3,0.1,0.4c0,0.1,0,0.2,0,0.3c0,0.1,0,0.3,0,0.4s0,0.3,0.1,0.4s0.1,0.2,0.1,0.3h-1.3c-0.1-0.2-0.1-0.4-0.1-0.7
				c0-0.3,0-0.5-0.1-0.7c0-0.3-0.1-0.5-0.3-0.7c-0.1-0.1-0.4-0.2-0.7-0.2H138v2.3h-1.3v-5.9H139.9z M139.4,118.2
				c0.3,0,0.5-0.1,0.7-0.2s0.2-0.3,0.2-0.6c0-0.3-0.1-0.5-0.2-0.6s-0.4-0.2-0.7-0.2H138v1.7H139.4z"/>
			<path class="st9" d="M147.3,115.6v5.9H146v-5.9H147.3z"/>
			<path class="st9" d="M154.7,115.6l2.2,5.9h-1.4l-0.4-1.3h-2.2l-0.5,1.3h-1.3l2.2-5.9H154.7z M154.8,119.2l-0.7-2.2h0l-0.8,2.2
				H154.8z"/>
			<path class="st9" d="M162.1,115.6l2.5,4h0v-4h1.2v5.9h-1.3l-2.5-4h0v4h-1.2v-5.9H162.1z"/>
		</g>
	</g>
</g>
<g id="Style_Guide" class="st0">
</g>
<g id="Primary_Logo">
	<g>
		<g>
			<g>
				<path class="st9" d="M137.5,48c0.1,0,0.2-0.1,0.4-0.2c1.1-0.7,2.1-0.9,0.7-1.8c-1-0.7-3.1-0.1-4.1,0.2c-2.3,0.8-4.6,1.8-6.7,2.9
					c-0.2,0.1-1.1,0.5-2,1c-0.9,0.5-1.7,0.9-1.8,0.9c0,0-3.3,1.9-3.1,1.8c-0.6,0.3-2.2,1.2-3.8,2c-0.8,0.4-1.6,0.8-2.3,1.2
					c-0.8,0.4-1,0.4-1.2,0.5c-0.1,0-0.8,0-0.8,0c-0.3,0-0.5-0.1-0.6-0.1c-0.1,0-0.1,0-0.2,0c-0.1,0-0.1,0-0.7-0.2
					c-0.7-0.2-3.3-0.8-3.4-0.8c-0.1,0-0.3-0.1-0.3-0.1c-0.4-0.1-0.8,0-1.1-0.1c-0.3,0-1,0.1-1.2,0.1c-0.8,0.2-1.6,0.6-1.6,0.6
					c-0.4,0.2-1.3,0.7-2.3,1.3c-1,0.5-2.2,1.1-2.2,1.1c-0.5,0.2-2.2,1-4,1.5c-0.9,0.3-1.7,0.5-2.5,0.7c-0.7,0.2-1.3,0.3-1.6,0.4
					C90.9,61,90,61.2,90,61.2c-0.1,0-2.9,0.6-3.9,0.8c0,0-1,0.2-1.4,0.2c-0.4,0-0.8,0.1-1.1,0.1c0,0.1-1.2,2.3-1.2,2.5
					c0,0,7.5-0.9,7.8-1c0.4-0.1,0.8-0.2,1.3-0.3c1-0.2,2.1-0.5,3.2-0.8c2.2-0.6,4.4-1.5,5.2-1.9c0,0,1.4-0.6,2.3-1.1
					c0.9-0.4,1.8-0.9,2.7-1.4c0.9-0.4,1.5-0.6,2.3-0.5c0.8,0.1,1.5,0.3,2.2,0.6c0.4,0.2,1,0.4,1.5,0.6c0.1,0,0.9,0.1,1.8,0.2
					c0.3,0,0.6,0,1,0c0.2,0,0.4-0.1,0.7-0.1c0.2-0.1,0.5-0.2,0.7-0.3c0.4-0.2,0.8-0.4,1.3-0.6c0.4-0.2,0.9-0.4,1.3-0.7
					c1.7-0.9,6.2-3.4,6.2-3.4c0.4-0.2,1.6-0.9,2.8-1.5c1.2-0.6,2.5-1.3,2.9-1.5l1.9-1c0.4-0.2,1.2-0.7,1.8-0.9c0,0,0.6-0.2,1-0.4
					c0.4-0.1,0.7-0.3,0.9-0.3C135.8,48.4,136.7,48.2,137.5,48z"/>
			</g>
			<g>
				<path class="st9" d="M176.2,44.9c-0.1-0.3-0.2-0.5-0.3-0.8c-0.1-0.2-0.2-0.5-0.3-0.7c-0.2-0.5-0.3-0.9-0.5-1.4
					c-0.7-1.9-1.3-3.8-2-5.8c-0.6-2-1.3-4-2-5.9c-0.7-1.9-1.4-3.7-2.1-5.3c-0.2-0.4-0.3-0.8-0.5-1.2c-0.2-0.4-0.4-0.8-0.5-1.1
					c-0.4-0.7-0.7-1.4-1.1-2c-0.7-1.2-1.1-2.1-1.2-2.5c0-0.1,0-0.3,0-0.5c0-0.2,0-0.4,0-0.5c0-0.2,0-0.4,0.1-0.5
					c0-0.2,0.1-0.4,0.1-0.5c0.2-0.7,0.6-1.4,1.1-2.1c0.2-0.3,0.5-0.7,0.8-1c0.2-0.2,0.4-0.5,0.6-0.7c0.2-0.3,0.4-0.6,0.7-0.9
					c0.2-0.3,0.4-0.6,0.5-0.9c0.2-0.3,0.2-0.6,0.3-0.9c0.2-0.6,0.2-1,0.2-1.6c0,0,0-0.3,0.1-0.8c0-0.1,0-0.3,0-0.4
					c0-0.1,0-0.1-0.1-0.2c0-0.1-0.1-0.3-0.1-0.4c-0.7,0.4-1.5,0.7-2.4,1.2c-0.1,0.1-0.2,0.1-0.3,0.2l-0.3,0.1
					c-0.2,0.1-0.4,0.1-0.6,0.2c-0.2,0.1-0.4,0.2-0.6,0.2l-0.3,0.1l-0.2,0.1c-0.1,0-0.1,0-0.1,0c-0.9,0.2-2,0.4-3.1,0.5
					c-2.3,0.2-4.8,0-7.3-0.4c-2.5-0.4-4.9-0.9-6.9-1.2c-2-0.3-3.7-0.5-4.6-0.6c0,0-2-0.2-2.7-0.2c-0.7-0.1-1.3-0.2-2.7-0.2
					c-0.2,0-2.7,0.1-3.9,0.1L125.7,7c-0.1,0-0.3,0-0.4,0.1c-1.2,0.2-2.8,0.5-4.4,0.9c-0.8,0.2-1.6,0.4-2.3,0.6
					c-0.7,0.2-1.3,0.4-1.7,0.5c-1.9,0.6-4.4,1.3-6.9,2.4c-2.5,1.1-5.1,2.4-7.4,3.9c-1,0.6-2,1.2-3,1.9c-0.1,0.1-0.3,0.2-0.4,0.3
					c0,0-0.8,1.3-0.8,2c0,0.4,0.1,0.6,0.7,0.5c0.3,0,0.6-0.2,1.1-0.4c0.2-0.1,0.5-0.3,0.8-0.4c0.2-0.1,2-1.3,2-1.3
					c1.4-0.9,2.9-1.8,3.8-2.3c1.5-0.8,0.4-0.2,1.9-0.9c4.7-2.1,9.5-3.8,14.5-4.7c5-0.9,15.3-1.1,15-1.1c3.1,0.1,5.9,0.4,8.7,0.8
					c0.8,0.1,1,0.2,1.2,0.3c-0.1,0,0.8,0.1,2.3,0.4c1.5,0.3,3.5,0.7,5.6,0.9c2.1,0.3,4.3,0.3,6,0.2c1.7-0.1,3.1-0.5,3.1-0.5
					c0.4-0.1,0.7-0.2,1-0.2c0,0,0,0,0.1,0c0,0,0.2,0,0.2-0.1c0,0,0,0,0.1,0c0,0,0,0.1,0,0.1c0,0-0.1,0.1-0.1,0.1
					c0,0.1-0.1,0.1-0.1,0.1c-0.1,0.2-0.2,0.3-0.3,0.4c0,0-0.2,0.3-0.5,0.5c-0.2,0.3-0.4,0.5-0.5,0.5c-0.1,0.2-0.3,0.6-0.6,1
					c-0.1,0.2-0.2,0.3-0.3,0.5c-0.1,0.3-0.3,0.7-0.4,1c-0.1,0.3-0.1,0.4-0.2,0.6c-0.1,0.4-0.2,0.8-0.2,1.2c-0.1,1-0.1,0.6-0.1,0.8
					c0,0.1,0,0.3,0,0.4c0,0.1,0,0.4,0.1,0.5c0.1,0.7,0.4,1.4,0.7,2c0.6,1.2,1.4,2.4,2,3.8c1.3,2.9,2.7,6.5,3.9,10.3
					c0.6,1.9,1.2,3.7,1.8,5.6c0.3,0.9,0.6,1.8,0.9,2.6c0.3,0.8,0.6,1.6,0.9,2.4c0.4,1.3,0.5,2.7,0.3,3.6c0,0.2-0.2,1.1-0.5,1.3
					c-0.2,0.1-0.7,0.2-1.4,0.3c-0.7,0.1-1.9-0.3-2.1-0.4c-0.2-0.1-1-0.9-1.1-1.3c-0.2-0.4-0.3-0.7-0.4-0.9c-0.2-0.5-0.2-0.6-0.3-0.8
					c0-0.1-0.1-0.3-0.2-0.7c-0.1-0.2-0.2-0.5-0.3-1c-0.1-0.2-0.2-0.5-0.4-0.8c-0.1-0.2-0.2-0.3-0.3-0.5c-0.1-0.2-0.2-0.4-0.3-0.5
					c-0.6-0.9-1.2-1.5-1.8-2c-0.6-0.5-1.2-0.8-1.7-1.1c-1-0.6-1.7-0.9-2.5-1.4c-0.1,0-0.5-0.3-1-0.6c-0.5-0.3-1-0.6-1.1-0.8
					c-0.2-0.1-0.4-0.3-0.6-0.5c-0.2-0.2-0.5-0.5-0.7-0.8c-0.5-0.5-1-1.2-1.3-1.6c-0.2-0.4-0.6-0.9-0.6-1c-0.7-1.1-1-2.1-1.4-3
					c-0.1-0.2-0.2-0.5-0.3-0.7c-0.1-0.2-0.2-0.5-0.3-0.7c-0.2-0.5-1.5-2-2.2-2.5c-0.3-0.2-0.7-0.4-0.9-0.5c-0.3-0.1-0.4-0.2-0.9-0.4
					c-0.6-0.2-1.2-0.3-1.8-0.5c-1.2-0.2-2.3-0.4-3.6-0.3c0,0-1.6,0-3.7,0.4c-2.1,0.4-4.5,1.2-6.6,2.5c-2.2,1.2-4.1,2.9-5.4,4.4
					c-0.3,0.4-0.6,0.8-0.9,1.1c-0.1,0.2-0.3,0.4-0.4,0.5c-0.1,0.2-0.2,0.3-0.3,0.5c-0.4,0.7-1.1,2-1.3,2.5c-0.1,0.2-0.2,0.5-0.4,0.8
					c-0.1,0.3-0.3,0.6-0.4,1c0.3,0.2,0.5,0.4,0.9,0.7c0,0,1.5,0.6,1.5,0.5l0.4-0.1c0.1,0,0.3-0.1,0.4-0.1c0.3-0.1,0.5-0.1,0.8-0.2
					c0.3-0.1,0.7-0.1,1.1-0.2c0.6-0.1,1.3-0.2,2-0.4c1.3-0.3,2.7-0.5,4.2-0.6c1.5-0.1,3-0.2,4.6-0.3c1.6-0.1,3.1-0.2,4.3,0.1
					c0.6,0.2,1.1,0.4,1.5,0.8c0.4,0.4,0.7,0.8,0.8,1.3c0.3,1,0.2,2.2,0,3.3c-0.5,2.1-1.3,3.8-1.6,4.7c-0.8,1.7-1,2-1.4,2.9l-1.2,2.4
					c-0.3,0.5-0.6,1.3-1.9,3.4c-1.1,1.8-1.2,1.8-2.6,3.4c-0.7,0.8-1.4,1.6-2.2,2.3c-0.4,0.4-0.8,0.7-1.2,1c-0.2,0.2-0.4,0.3-0.6,0.5
					l-0.3,0.2l-0.2,0.1c0,0-0.4,0.1-0.5,0.2c-0.4,0.2-0.4,0.2-0.5,0.2c-1.4,0.6-3.1,1-4.8,1.3c-0.4,0.1-0.8,0.1-1.2,0.2
					c-0.2,0-0.4,0.1-0.6,0.1c-0.2,0-0.4,0-0.5,0.1c-0.4,0-1.1,0-1.3,0c-0.2,0-0.4-0.1-0.5-0.2c-0.3-0.3-0.2-0.8,0.2-1.5
					c0.2-0.4,0.4-0.5,0.3-0.9c-0.6-0.1-1.2,0.1-1.6,0.4c-0.1,0.1-0.2,0.2-0.3,0.3c0,0.1-0.1,0.1-0.1,0.2c-0.2,0.2-0.4,0.5-0.6,0.8
					c-0.2,0.3-0.3,0.6-0.3,0.9c0,0,0,0.1,0,0.1c0,0.2,0,0.4,0.1,0.7c0.3,0.9,1,1.5,2.3,1.7c0.6,0.1,1.4,0.1,2,0c0.2,0,0.4,0,0.6-0.1
					c0.2,0,0.5,0,0.5,0c1.7-0.2,3-0.5,4.2-0.9c0.6-0.2,1.2-0.4,1.9-0.6c0.3-0.1,0.7-0.2,1-0.4c0.2-0.1,0.4-0.1,0.6-0.2
					c0.1-0.1,0.2-0.1,0.4-0.2c0.1,0,0.2-0.1,0.2-0.1c0,0,0.2-0.1,0.2-0.1c0.1-0.1,0.3-0.2,0.5-0.3c0.3-0.2,0.7-0.5,1-0.8
					c0.7-0.6,1.4-1.4,2.2-2.2c1.6-1.7,2.9-3.5,3.1-3.9c0.5-0.8,1.1-1.8,1.9-3c0.7-1.2,1.6-2.7,2.4-4.4c0.4-0.8,0.8-1.7,1.2-2.6
					c0.4-0.9,0.8-1.9,1.1-2.9c0.3-1,0.6-2.1,0.8-3.3c0.1-1.2,0.1-2.5-0.4-3.8c-0.3-0.6-0.7-1.3-1.2-1.8c-0.5-0.5-1.1-0.9-1.8-1.2
					c-1.3-0.5-2.6-0.6-3.7-0.6c-1.1,0-2.2,0.1-3.1,0.1c-1,0-2,0.1-3,0.2c-1.9,0.1-3.8,0.4-5.4,0.7c-0.2,0-0.4,0.1-0.6,0.1
					c-0.2,0-0.3,0.1-0.5,0.1c-0.4,0.1-0.7,0.1-1.1,0.2c-0.3,0.1-0.8,0.2-0.9,0.2c-0.1,0-0.2,0.1-0.2,0.1c0,0,0,0,0,0
					c0-0.1,0.3-0.6,0.3-0.6c0.2-0.3,0.4-0.7,0.6-1c0.2-0.3,0.5-0.6,0.7-1c1-1.3,2.4-2.6,4-3.7c1.6-1.1,3.4-2,5.4-2.5
					c2-0.6,4.1-0.8,6.1-0.7l1.5,0.2c0.5,0.1,1,0.2,1.5,0.4c1,0.3,1.8,0.7,2.3,1.2c0.5,0.5,0.8,1.5,1.2,2.5c0.4,1,0.9,2.1,1.5,3.1
					c0.3,0.5,0.6,0.9,0.9,1.4c0.3,0.4,0.7,0.9,1,1.3c0.4,0.4,0.7,0.8,1.1,1.2c0.4,0.4,0.8,0.7,1.2,1c0.8,0.6,1.6,1.1,2.4,1.5
					c0.8,0.4,1.4,0.8,2,1.2c0.7,0.5,1.5,1.1,2.1,1.8c0.3,0.4,0.6,0.7,0.8,1.1c0.2,0.4,0.3,0.6,0.4,0.7c0,0,0.1,0.3,0.3,0.7
					c0.4,1.4,0.7,2.2,0.9,2.7c0.2,0.4,0.2,0.5,0.3,0.5c0,0.1,0.1,0.1,0.3,0.6c0.1,0.2,0.4,0.5,0.8,1c0.4,0.4,1.1,0.9,2,1.2
					c0.5,0.2,1.1,0.3,1.8,0.3c0.7,0,1.5,0,2.3-0.3c0.4-0.1,0.9-0.3,1.3-0.6c0.4-0.3,0.9-0.7,1.2-1.3c0.5-1,0.6-2,0.6-3
					C176.6,47,176.5,46,176.2,44.9z"/>
			</g>
		</g>
	</g>
	<g>
		<g>
			<path d="M27.1,97.3l-0.6,0.4c-0.1,0.1-0.3,0.2-0.7,0.4c-0.3,0.2-0.6,0.3-1,0.5c-0.3,0.2-0.6,0.3-0.9,0.5
				c-0.3,0.2-0.4,0.3-0.5,0.3c-0.9,0.5-2.1,0.9-3.4,1.2c-0.4,0.1-0.7,0.2-1,0.3c-0.3,0.1-0.6,0.1-0.9,0c-0.3,0-0.5-0.1-0.7-0.2
				c-0.2-0.1-0.4-0.2-0.6-0.4c-0.2,0-0.4-0.1-0.4-0.1c0-0.1-0.1-0.1-0.2-0.2L16,99.6l-0.1-0.3c0-0.2,0-0.4-0.1-0.6
				c-0.1-0.2-0.1-0.3,0-0.5c0-0.7,0.1-1.3,0.3-2.1c0.1-0.4,0.2-0.8,0.3-1.1l-1.1,1.3l-1.6,1.5L12.6,99c-0.3,0.5-0.5,0.7-0.6,0.9
				c-0.1,0.1-0.3,0.4-0.7,0.7l-1.1,1.6c-0.4,0.5-0.7,0.9-0.9,1.2c-0.2,0.3-0.5,0.7-0.8,1.3c-0.2,0.2-0.3,0.4-0.4,0.4
				c-0.1,0-0.1,0.2-0.2,0.4l-0.6,0.8l-0.1,0.2l-0.2,0.4c0,0.1,0,0.2,0,0.2c0,0.1-0.1,0.2-0.3,0.3l-0.1,0.1c0,0.1-0.1,0.1-0.2,0.1
				c-0.2,0-0.4,0-0.5,0c-0.3-0.1-0.5-0.2-0.7-0.4c-0.2,0-0.3-0.2-0.4-0.4c-0.1-0.2-0.2-0.4-0.2-0.5l0-0.4c0-0.1,0-0.2,0.1-0.2
				c0-0.1,0.1-0.1,0.1-0.2l0.2-0.5l0.5-0.8c0.2-0.5,0.3-0.8,0.4-1.2c0.1-0.3,0.2-0.7,0.4-1.2c0.1-0.3,0.2-0.5,0.3-0.6
				c0.1-0.2,0.1-0.3,0.1-0.4c0-0.1,0.1-0.2,0.2-0.4c0.1-0.1,0.2-0.3,0.3-0.5c0.1-0.2,0.1-0.4,0.1-0.4c0,0,0-0.2,0-0.4l0.8-1.6
				c0.3-0.6,0.5-1.1,0.7-1.4C8.7,95.8,8.8,95.4,9,95c0.2-0.3,0.4-0.6,0.4-0.9c0.1-0.3,0.2-0.6,0.3-0.8c0-0.1,0.1-0.3,0.2-0.6
				c0.1-0.2,0.2-0.7,0.4-1.3c0.1-0.2,0.2-0.4,0.4-0.4l0.3,0c0.2,0,0.4,0,0.5,0c0.1,0,0.2,0.1,0.4,0.1c0.1,0.1,0.2,0.3,0.4,0.4
				c0.2,0.1,0.3,0.3,0.4,0.4c0,0.1,0,0.2,0.1,0.3c0,0.1,0,0.2-0.1,0.3c0,0.1,0,0.3,0,0.5c0,0.2-0.1,0.6-0.3,1.1
				c-0.2,0.5-0.4,1-0.5,1.4s-0.4,1-0.7,1.6l1.9-2.1l1.4-1.5c0.2-0.1,0.4-0.3,0.7-0.5c0.2-0.2,0.5-0.4,0.7-0.6l0.5-0.2
				c0.1,0,0.2,0,0.2-0.1c0,0,0.2-0.1,0.4-0.1l0.7,0l0.4,0.2c0,0,0.1,0,0.2,0.1c0.2,0.1,0.3,0.1,0.3,0.2l0.1,0.3
				c0.1,0,0.1,0.1,0.1,0.3l0,0.2c-0.1,0.8-0.2,1.4-0.4,1.8c-0.3,0.7-0.4,1.2-0.4,1.7l-0.4,0.9l-0.2,0.9c0.1,0.2,0.1,0.4,0.1,0.6
				c0,0.2,0,0.4,0.1,0.6l0,0.1l0.4,0c0.7,0,1.3-0.2,1.9-0.4c0.7-0.1,1.2-0.3,1.7-0.5c0.5-0.2,1-0.5,1.6-0.8c0.2-0.1,0.5-0.2,1-0.5
				c0.5-0.3,0.8-0.5,0.9-0.6l0.9-0.6l0.5,0l0.4,0.5L27.1,97.3z"/>
			<path d="M27.7,91.5l0.1,0l0.1,0.1c0.3,0,0.5,0.1,0.6,0.3c0.4,0.1,0.6,0.3,0.7,0.6c0.1,0.2,0.1,0.3,0,0.4
				c-0.1,0.2-0.2,0.4-0.3,0.6c-0.1,0.2-0.1,0.4-0.2,0.6c-0.2,0.4-0.4,0.7-0.5,1.1c-0.1,0.4-0.3,0.8-0.5,1.1c-0.1,0.3-0.2,0.6-0.3,1
				c-0.1,0.4-0.3,0.7-0.4,1l-0.9,2.2c-0.2,0.4-0.4,0.7-0.5,1.1s-0.3,0.7-0.4,1.1c-0.1,0.3-0.2,0.5-0.3,0.8c-0.1,0.2-0.1,0.5-0.2,0.8
				c0,0.1,0,0.2,0.1,0.3c0,0,0,0.1,0,0.2c0.1,0,0.2,0,0.3,0c0.1,0,0.2,0,0.3,0c0.1-0.1,0.3-0.1,0.4-0.1c0.2,0,0.3-0.1,0.4-0.2
				c0.2-0.1,0.4-0.2,0.6-0.3c0.2-0.1,0.4-0.2,0.6-0.4c0.7-0.3,1.4-0.7,2.1-1.1c0.7-0.4,1.3-0.8,2-1.2c0.2-0.2,0.3-0.3,0.5-0.5
				c0.1-0.1,0.3-0.2,0.5-0.3c0.3-0.1,0.5-0.3,0.6-0.4c0.1-0.1,0.3-0.2,0.5-0.4l2-1.4c0.3-0.3,0.7-0.6,1-0.8c0.4-0.3,0.7-0.5,1-0.8
				c0.4-0.2,0.9-0.6,1.4-1.1c0.6-0.5,1-0.9,1.4-1.2c0.1,0,0.3,0,0.5,0c0.1,0,0.2,0.1,0.2,0.1c0.1,0,0.1,0.1,0.2,0.2
				c0.2,0.2,0.3,0.4,0.2,0.5c-0.2,0.3-0.4,0.5-0.5,0.6c-0.1,0.1-0.2,0.3-0.4,0.4c-0.1,0.1-0.2,0.2-0.2,0.3c-0.7,0.6-1.2,1.1-1.7,1.5
				c-0.5,0.4-1.1,0.9-1.8,1.4c-0.3,0.2-0.7,0.5-1,0.7c-0.3,0.3-0.7,0.5-1,0.8c-0.4,0.2-0.8,0.5-1.1,0.7c-0.3,0.2-0.6,0.5-0.9,0.7
				l-2,1.4c-0.3,0.2-0.7,0.5-1,0.6c-0.3,0.2-0.7,0.4-1.2,0.7c-0.3,0.2-0.7,0.4-1,0.6c-0.3,0.2-0.8,0.3-1.2,0.5
				c-0.4,0.2-0.8,0.3-1.3,0.3c-0.5,0-0.9-0.1-1.3-0.3c-0.1-0.1-0.3-0.1-0.4-0.1c-0.1,0-0.2-0.1-0.3-0.2c0-0.1-0.1-0.1-0.2-0.1
				c-0.1,0-0.1,0-0.2-0.1c-0.1-0.1-0.2-0.2-0.3-0.3c0-0.1-0.1-0.2-0.2-0.3c-0.2-0.3-0.3-0.6-0.2-0.8c-0.1-0.2-0.2-0.5-0.1-0.8l0-0.4
				l0.3-1.1c0.1-0.4,0.2-0.7,0.4-1.1c0.1-0.4,0.3-0.8,0.5-1.1c0.1-0.4,0.2-0.7,0.3-1.1c0.2-0.4,0.3-0.7,0.5-1.1l1.1-2.1
				c0.2-0.3,0.4-0.6,0.6-1c0.2-0.3,0.4-0.7,0.6-1c0.2-0.4,0.3-0.7,0.5-1.1c0.2-0.4,0.3-0.7,0.5-1.1L27.7,91.5z M30.7,83.4
				c0,0,0.1,0.1,0.3,0.1c0.2,0.1,0.3,0.1,0.5,0.2c0.2,0,0.3,0.1,0.4,0.2c0.1,0.1,0.2,0.3,0.3,0.4c0.1,0.1,0.2,0.3,0.3,0.5
				c0.1,0.2,0.1,0.3,0,0.5l-1.7,3.7c0,0.1-0.2,0.1-0.4,0.2l-0.3,0c-0.4-0.1-0.6-0.2-0.8-0.4c-0.3-0.2-0.4-0.3-0.5-0.6
				c-0.1,0-0.2-0.2-0.3-0.5c0.4-1.3,0.9-2.6,1.6-3.9L30.7,83.4z"/>
			<path d="M61.4,64.3c0-0.1,0.2-0.1,0.5-0.2l0.2,0c0.1,0,0.2,0.1,0.3,0.1c0.1,0,0.2,0.1,0.3,0.2c0.1,0.1,0.3,0.2,0.4,0.2
				c0.1,0.1,0.2,0.2,0.3,0.4l0,0.5l-0.2,0.4l0,0.1l-0.2,0.5c-0.1,0.2-0.2,0.5-0.3,0.7c-0.2,0.4-0.4,0.8-0.5,1.2s-0.4,0.8-0.6,1.1
				c-0.2,0.5-0.4,0.9-0.5,1.3c-0.2,0.4-0.3,0.8-0.5,1.2l-0.8,1.6c-0.1,0.2-0.2,0.4-0.2,0.6s-0.2,0.3-0.2,0.4
				c-0.2,0.4-0.3,0.9-0.5,1.3c-0.2,0.4-0.3,0.9-0.5,1.3c-0.1,0.4-0.2,0.8-0.3,1.2s-0.3,0.8-0.5,1.3c-0.2,0.4-0.4,0.8-0.5,1.3
				c-0.2,0.4-0.3,0.9-0.5,1.3c-0.6,1.7-1.1,3.3-1.6,5c-0.5,1.7-1,3.4-1.5,5.1l0,0.3c-0.2,0.4-0.3,0.8-0.3,1.2
				c-0.1,0.4-0.1,0.9-0.2,1.3c-0.1,0.4-0.1,0.8-0.2,1.2c-0.1,0.4-0.2,0.8-0.2,1.2l-0.1,1.3c0,0.2-0.1,0.4-0.1,0.7
				c0,0.2-0.1,0.4-0.1,0.6c0.1,0.4,0.1,0.8,0.1,1.1c0,0.3,0,0.7,0.1,1c0.1,0.1,0.2,0.3,0.2,0.4c0,0.2,0.1,0.3,0.1,0.5l0.2,0.3l0.2,0
				c0,0,0.1,0,0.2,0.1c0.2,0,0.4-0.1,0.5-0.2l0.3,0c0,0,0.1-0.1,0.2-0.1c0.1,0,0.2-0.1,0.3-0.1l0.8-0.5c0.2-0.1,0.4-0.3,0.6-0.4
				c0.2-0.1,0.4-0.2,0.5-0.4c0.3-0.2,0.6-0.5,0.9-0.7c0.3-0.3,0.6-0.5,0.9-0.7c0.2-0.2,0.3-0.3,0.3-0.4c0.7-0.7,1.3-1.3,1.9-2
				c0.6-0.6,1.2-1.3,1.7-2c0.3-0.4,0.6-0.8,0.9-1.1c0.3-0.3,0.6-0.7,0.8-1.1c0.2-0.2,0.4-0.4,0.5-0.5c0.1-0.2,0.3-0.3,0.5-0.5
				c0.1-0.2,0.2-0.3,0.3-0.4c0.1-0.1,0.3-0.2,0.5-0.4c0.2-0.1,0.4-0.1,0.5,0c0.1,0.1,0.2,0.2,0.3,0.3c0,0.1,0.1,0.2,0.2,0.3
				c0.1,0.1,0.1,0.3,0.1,0.5c0,0,0,0.1-0.1,0.3c-0.2,0.3-0.3,0.5-0.4,0.6c0,0.1-0.2,0.3-0.5,0.6c-0.2,0.3-0.4,0.6-0.6,0.9
				c-0.2,0.3-0.5,0.5-0.7,0.9c-0.4,0.6-0.8,1.2-1.3,1.7c-0.5,0.6-0.9,1.1-1.4,1.7l-1.9,2c-0.4,0.3-0.8,0.6-1.1,0.9
				c-0.4,0.3-0.7,0.5-1.1,0.8l-0.9,0.8c-0.3,0.2-0.5,0.4-0.8,0.4c-0.3,0.1-0.6,0.1-0.9,0.2c-0.6,0.3-1.3,0.3-1.8,0.1
				c-0.6-0.2-1.1-0.5-1.6-0.9c-0.4-0.3-0.7-0.6-0.9-1c-0.2-0.4-0.4-0.8-0.5-1.2c-0.4-0.8-0.6-1.6-0.6-2.6c-0.1-0.9-0.1-1.7,0-2.6
				c0.1-0.8,0.1-1.7,0.2-2.6c0-0.5,0.1-0.9,0.2-1.3c0.1-0.4,0.2-0.8,0.4-1.2c0.1-0.4,0.3-1,0.4-1.5l-0.9,1.3l-3.1,4.5l-3.1,4.4
				l-1.7,1.8c-0.3,0.4-0.7,0.7-1,1.1c-0.3,0.3-0.7,0.7-1,1c-0.2,0.1-0.4,0.3-0.5,0.4c-0.1,0.1-0.2,0.2-0.3,0.3
				c-0.1,0.1-0.4,0.3-0.7,0.4l-0.3,0.1c0,0-0.1,0.1-0.2,0.1c0,0-0.1,0-0.1,0.1c-0.4,0-0.8,0-1.2-0.2c-0.1-0.1-0.2-0.1-0.3-0.2
				c-0.1,0-0.2-0.1-0.3-0.2c0,0-0.1-0.1-0.1-0.2c0-0.1-0.1-0.1-0.2-0.2c-0.2-0.3-0.3-0.7-0.3-1.1l0-0.4c0-0.2,0-0.4,0-0.6
				c0-0.2,0-0.4,0.1-0.6c0.1-0.3,0.1-0.5,0.2-0.7c0.1-0.2,0.2-0.4,0.3-0.7c0-0.2,0.1-0.4,0.1-0.5c0.1-0.2,0.1-0.4,0.2-0.5
				c0.1-0.2,0.2-0.4,0.4-0.5c0.1-0.1,0.3-0.3,0.5-0.6c0.1-0.4,0.3-0.7,0.5-1c0.2-0.3,0.5-0.6,0.7-1c0.4-0.4,0.7-0.7,1-1
				c0.3-0.3,0.5-0.6,0.8-1l2-1.8c0.3-0.2,0.7-0.5,1-0.6c0.3-0.2,0.8-0.3,1.2-0.4c0.3-0.1,0.6,0,1,0c0.3,0.1,0.6,0.2,0.8,0.4
				c0,0,0.1,0.1,0.2,0.1c0.1,0,0.2,0.1,0.2,0.2l2.2-3.6c0.4-0.8,0.9-1.5,1.4-2.3c0.5-0.7,0.9-1.5,1.4-2.3l2.8-4.9l0.8-1.4l1.5-3.8
				c0.3-0.9,0.6-1.7,1-2.5c0.4-0.8,0.7-1.6,1.1-2.4c0.2-0.4,0.4-0.8,0.6-1.2c0.2-0.4,0.3-0.8,0.5-1.2c0.3-0.5,0.5-0.9,0.8-1.3
				C61,65.3,61.2,64.8,61.4,64.3z M45.8,93.2c-0.2,0-0.5,0.1-0.7,0.2c-0.3,0.1-0.6,0.3-0.9,0.5c-0.3,0.2-0.6,0.4-0.9,0.7l-1.1,1.3
				c-0.3,0.4-0.6,0.7-0.9,1.1c-0.3,0.4-0.5,0.7-0.7,1c-0.2,0.4-0.5,0.7-0.7,1.1c-0.2,0.4-0.4,0.7-0.5,1.1c-0.2,0.4-0.4,0.7-0.6,1.1
				c-0.2,0.3-0.3,0.7-0.5,1.2l-0.7,1.3l0.4-0.1c0.1-0.2,0.3-0.4,0.6-0.6c0.2-0.2,0.4-0.4,0.5-0.5c0.1-0.1,0.2-0.3,0.4-0.5
				c0.6-0.6,1.2-1.3,1.7-2c0.5-0.7,1.1-1.4,1.6-2.2C44,96.4,45,95,46,93.5L45.8,93.2C45.8,93.3,45.8,93.2,45.8,93.2z"/>
			<path d="M71,88.1l0.2,0c0.2,0,0.5,0,0.8,0.1c0.4,0.1,0.7,0.1,0.9,0.2c0.2,0.1,0.4,0.2,0.5,0.4c0.2,0.2,0.3,0.5,0.3,0.8
				c0.1,0.2,0.1,0.4,0,0.6c-0.1,0.2-0.1,0.4-0.1,0.5c0,0.3,0,0.5-0.1,0.6c-0.1,0.2-0.2,0.4-0.3,0.6c-0.1,0.2-0.2,0.4-0.3,0.5
				c-0.1,0.1-0.2,0.3-0.3,0.5c-0.5,0.8-1.1,1.4-1.8,2c-0.7,0.5-1.3,1.1-2,1.5c-0.2,0.1-0.4,0.1-0.6,0.2c-0.2,0.1-0.4,0.2-0.6,0.2
				c0,0.1-0.3,0.2-0.8,0.4c0,0-0.1,0.1-0.2,0.1c0,0-0.1,0-0.2,0.1l-0.5,0c-0.1,0-0.2,0-0.2,0c0,0-0.1,0-0.2,0c0,0,0,0-0.2-0.1
				c0,0.4-0.1,0.7-0.2,1c-0.1,0.3-0.1,0.6,0,0.9c0.1,0.2,0.1,0.4,0,0.8c0,0.3,0.1,0.6,0.2,0.7l0.6,0.6c0.1,0.1,0.2,0.1,0.5,0.1
				c0.2,0,0.4,0,0.5,0.1c0.9,0,1.7-0.2,2.6-0.5c0.7-0.3,1.6-0.7,2.5-1.1c0.9-0.4,1.8-0.8,2.7-1.3c0.2-0.2,0.4-0.3,0.7-0.4
				c0.2-0.1,0.5-0.2,0.7-0.4l2.5-1.8l2.6-1.9l2-1.6c0.1-0.1,0.3-0.1,0.5-0.1l0.3,0c0.2,0.1,0.3,0.1,0.2,0.1c0,0,0,0,0.1,0.1
				c0.1,0.1,0.1,0.2,0.1,0.4c-0.1,0.2,0,0.3,0.1,0.5l-0.1,0.3c-0.1,0.1-0.3,0.3-0.7,0.6c-0.4,0.3-0.6,0.5-0.6,0.6
				c-0.1,0.1-0.1,0.2-0.2,0.2s-0.2,0.1-0.4,0.4c-0.2,0.3-0.7,0.7-1.3,1.1c-0.6,0.4-1,0.7-1.3,1c-0.3,0.2-0.6,0.4-1,0.7
				c-0.4,0.3-0.8,0.6-1.2,0.9c-0.4,0.3-0.8,0.6-1.2,0.8c-0.4,0.2-0.7,0.4-0.9,0.5c-0.6,0.4-1.1,0.7-1.5,0.9s-0.8,0.5-1.3,0.7
				l-2.3,0.9c-0.3,0.1-0.7,0.1-1.1,0.2c-0.4,0.1-0.7,0.1-0.9,0.2c-0.3-0.1-0.6-0.1-0.8,0c-0.2,0.1-0.5,0-0.8,0c-0.2,0.1-0.4,0-0.6,0
				c-0.2-0.1-0.4-0.1-0.6-0.2c-0.2-0.1-0.4-0.2-0.7-0.2c-0.2-0.1-0.4-0.2-0.6-0.3c-0.1-0.1-0.4-0.3-0.7-0.4
				c-0.3-0.1-0.5-0.3-0.6-0.5c-0.1-0.1-0.2-0.4-0.4-0.8c-0.2-0.5-0.3-1.1-0.3-1.7c0.1-0.6,0.1-1.1,0.1-1.5c0-0.1,0-0.4,0.2-0.7
				c0.3-1.3,0.9-2.5,1.8-3.7c0.9-1.1,1.9-2.2,2.9-3.1c0.3-0.4,0.7-0.7,1.1-0.9c0.4-0.2,0.8-0.5,1.1-0.7c0.3-0.2,0.5-0.3,0.6-0.3
				L71,88.1z M69.3,91.8c-0.2,0.2-0.4,0.5-0.7,0.7c-0.3,0.3-0.5,0.5-0.7,0.7c-0.3,0.3-0.5,0.6-0.7,0.8c-0.2,0.3-0.4,0.6-0.7,0.9
				c0,0.2-0.1,0.5-0.4,0.7l0.8-0.4c0.1-0.1,0.2-0.2,0.3-0.2s0.2-0.1,0.3-0.2c0.3-0.1,0.5-0.3,0.7-0.4c0.2-0.1,0.4-0.3,0.6-0.4
				c0.1-0.1,0.3-0.3,0.4-0.5c0.1-0.2,0.3-0.3,0.6-0.5c0.2-0.2,0.3-0.3,0.4-0.5c0.1-0.1,0.2-0.3,0.3-0.6l0.4-0.9l0.1-0.3
				c-0.2,0.1-0.3,0.2-0.4,0.2c-0.1,0-0.2,0.1-0.3,0.2L69.3,91.8z"/>
			<path d="M102.4,87.4l0.1,0l0.1,0.1c0.3,0,0.5,0.1,0.6,0.3c0.4,0.1,0.6,0.3,0.7,0.6c0.1,0.2,0.1,0.3,0,0.4
				c-0.1,0.2-0.2,0.4-0.3,0.6c-0.1,0.2-0.1,0.4-0.2,0.6c-0.2,0.4-0.4,0.7-0.5,1.1c-0.1,0.4-0.3,0.8-0.5,1.1c-0.1,0.3-0.2,0.6-0.3,1
				c-0.1,0.4-0.3,0.7-0.4,1l-0.9,2.2c-0.2,0.4-0.4,0.7-0.5,1.1c-0.1,0.3-0.3,0.7-0.4,1.1c-0.1,0.3-0.2,0.5-0.3,0.8s-0.1,0.5-0.2,0.8
				c0,0.1,0,0.2,0.1,0.3c0,0,0,0.1,0,0.2c0.1,0,0.2,0,0.3,0c0.1,0,0.2,0,0.3,0c0.1-0.1,0.3-0.1,0.4-0.1c0.2,0,0.3-0.1,0.4-0.2
				c0.2-0.1,0.4-0.2,0.6-0.3c0.2-0.1,0.4-0.2,0.6-0.4c0.7-0.3,1.4-0.7,2.1-1.1c0.7-0.4,1.3-0.8,2-1.2c0.2-0.2,0.3-0.3,0.5-0.5
				c0.1-0.1,0.3-0.2,0.5-0.3c0.3-0.1,0.5-0.3,0.6-0.4c0.1-0.1,0.3-0.2,0.5-0.4l2-1.4c0.3-0.3,0.7-0.6,1-0.8c0.4-0.3,0.7-0.5,1-0.8
				c0.4-0.2,0.9-0.6,1.4-1.1c0.6-0.5,1-0.9,1.4-1.2c0.1-0.1,0.3,0,0.5,0c0.1,0,0.2,0.1,0.2,0.1c0.1,0,0.1,0.1,0.2,0.2
				c0.2,0.2,0.3,0.4,0.2,0.5c-0.2,0.3-0.4,0.5-0.5,0.6s-0.2,0.3-0.4,0.4c-0.1,0.1-0.2,0.2-0.2,0.3c-0.7,0.6-1.2,1.1-1.7,1.5
				c-0.5,0.4-1.1,0.9-1.8,1.4c-0.3,0.2-0.7,0.5-1,0.7c-0.3,0.3-0.7,0.5-1,0.8c-0.4,0.2-0.8,0.5-1.1,0.7c-0.3,0.2-0.6,0.5-0.9,0.7
				l-2,1.4c-0.3,0.2-0.7,0.5-1,0.6c-0.3,0.2-0.7,0.4-1.2,0.7c-0.3,0.2-0.7,0.4-1,0.6c-0.3,0.2-0.8,0.3-1.2,0.5
				c-0.4,0.2-0.8,0.3-1.3,0.3s-0.9-0.1-1.3-0.3c-0.1-0.1-0.3-0.1-0.4-0.1c-0.1,0-0.2-0.1-0.3-0.2c0-0.1-0.1-0.1-0.2-0.1
				c-0.1,0-0.1,0-0.2-0.1c-0.1-0.1-0.2-0.2-0.3-0.3c0-0.1-0.1-0.2-0.2-0.3c-0.2-0.3-0.3-0.6-0.2-0.8c-0.1-0.2-0.2-0.5-0.1-0.8l0-0.4
				l0.3-1.1c0.1-0.4,0.2-0.7,0.4-1.1s0.3-0.8,0.5-1.1c0.1-0.4,0.2-0.7,0.3-1.1c0.2-0.4,0.3-0.7,0.5-1.1l1.1-2.1
				c0.2-0.3,0.4-0.6,0.6-1c0.2-0.3,0.4-0.7,0.6-1c0.2-0.4,0.3-0.7,0.5-1.1c0.2-0.4,0.3-0.7,0.5-1.1L102.4,87.4z M105.4,79.3
				c0,0,0.1,0.1,0.3,0.1c0.2,0.1,0.3,0.1,0.5,0.2c0.2,0,0.3,0.1,0.4,0.2c0.1,0.1,0.2,0.3,0.3,0.4c0.1,0.1,0.2,0.3,0.3,0.5
				c0.1,0.2,0.1,0.3,0,0.5l-1.7,3.7c0,0.1-0.2,0.1-0.4,0.2l-0.3,0c-0.4-0.1-0.6-0.2-0.8-0.4c-0.3-0.2-0.4-0.3-0.5-0.6
				c-0.1,0-0.2-0.2-0.3-0.5c0.4-1.3,0.9-2.6,1.6-3.9L105.4,79.3z"/>
			<path d="M118.3,85.4c0.1-0.2,0.1-0.3,0.2-0.3c0.1,0,0.2,0,0.4,0l0.1,0c0.4,0,0.6,0.1,0.9,0.3c0.2,0.1,0.4,0.2,0.5,0.4
				c0.1,0.2,0.2,0.4,0.3,0.6c0.1,0.2,0,0.4-0.1,0.7c-0.2,0.4-0.3,0.7-0.5,1.1c-0.2,0.4-0.4,0.8-0.7,1.2c-0.2,0.5-0.4,0.9-0.6,1.2
				c-0.2,0.3-0.4,0.6-0.5,0.9c-0.2,0.3-0.3,0.6-0.5,0.9c-0.2,0.3-0.4,0.7-0.7,1.2c0,0-0.1,0-0.1,0.1c0,0.1-0.1,0.2-0.1,0.2
				c0.3-0.2,0.5-0.5,0.7-0.7c0.2-0.2,0.4-0.4,0.5-0.7c0.4-0.3,0.8-0.6,1.2-0.9c0.4-0.3,0.8-0.6,1.2-1c0.4-0.3,0.8-0.7,1.2-1
				c0.4-0.4,0.8-0.6,1.1-0.9l1.7-1c0.1-0.1,0.2-0.2,0.3-0.2c0.1,0,0.2-0.1,0.3-0.1c0,0,0.1-0.1,0.1-0.1c0.2-0.1,0.3-0.2,0.5-0.2
				c0.6,0.2,1.1,0.6,1.3,1.1c0.2,0.1,0.3,0.5,0.3,1l-0.1,1c-0.1,0.4-0.1,0.8-0.2,1.2c-0.1,0.4-0.2,0.9-0.4,1.4l-0.2,1.3
				c-0.1,0.4-0.1,0.7-0.1,1c0,0.3,0,0.6,0,0.9l0,0.7l0.1,0c0,0,0,0.1,0.1,0.1l0.1,0c0.1,0,0.2,0,0.3,0.1c0.2,0,0.3,0,0.5,0.1
				c0.3-0.1,0.7-0.1,1-0.2c0.3-0.1,0.7-0.2,1.1-0.5c0.3-0.1,0.7-0.2,0.9-0.3c0.3-0.1,0.6-0.3,0.9-0.4c0.3-0.2,0.6-0.4,0.9-0.6
				s0.6-0.3,1-0.6c0.3-0.2,0.6-0.4,0.8-0.6c0.3-0.2,0.5-0.4,0.9-0.6c0.2-0.1,0.4-0.3,0.7-0.4c0.2-0.1,0.5-0.3,0.7-0.6
				c0.2-0.1,0.3-0.2,0.4-0.3c0.1,0,0.2-0.1,0.3-0.1c0.1,0,0.2-0.1,0.3-0.1c0.1-0.1,0.3-0.2,0.5-0.4c0.3-0.2,0.4-0.3,0.4-0.4
				c0,0,0.2-0.2,0.4-0.4c0.2-0.1,0.3-0.2,0.4-0.2c0,0,0.1-0.1,0.3-0.3c0.3-0.2,0.5-0.4,0.6-0.5c0.1-0.1,0.4-0.3,0.7-0.5l0.5,0
				c0.1,0,0.1,0.1,0,0.2c-0.1,0.1,0,0.2,0.2,0.2c0.1,0.1,0.1,0.2,0.1,0.5c0,0.2,0,0.5,0,0.7c0,0,0,0.1-0.1,0.1
				c-0.1,0.1-0.1,0.1-0.2,0.1c-0.2,0.2-0.3,0.3-0.3,0.3c0,0-0.1,0.1-0.3,0.2c-0.2,0.1-0.3,0.2-0.3,0.2c0,0-0.1,0.1-0.3,0.3
				c-0.3,0.2-0.5,0.4-0.6,0.5c-0.1,0.1-0.3,0.3-0.6,0.5c-0.3,0.2-0.4,0.4-0.5,0.4c-0.1,0-0.1,0.1-0.2,0.1c0,0-0.1,0.1-0.2,0.1
				c-0.1,0-0.3,0.2-0.6,0.4l-2,1.4c-0.3,0.2-0.5,0.4-0.8,0.6c-0.3,0.1-0.6,0.3-0.9,0.5c-0.3,0.2-0.6,0.4-0.9,0.6
				c-0.3,0.1-0.6,0.3-0.9,0.5c-0.3,0.1-0.7,0.2-1,0.4c-0.3,0.1-0.7,0.2-1,0.4c-0.4,0-0.7,0-1,0.1c-0.3,0-0.7,0-1.1,0
				c-0.1,0-0.2,0-0.4,0c-0.2,0-0.3-0.1-0.4-0.2l-1-0.5c-0.2-0.1-0.3-0.2-0.4-0.3c-0.1-0.1-0.3-0.3-0.5-0.4c-0.1-0.2-0.1-0.3-0.2-0.5
				c-0.1-0.1-0.1-0.3-0.2-0.4c0-0.2,0-0.4,0-0.5c-0.1-0.1-0.1-0.3-0.1-0.5c0.1-0.4,0.1-0.8,0.1-0.9c0-0.5,0.1-1,0.2-1.5
				c0.1-0.5,0.2-0.9,0.3-1.3c0-0.2,0-0.4,0-0.6c0-0.2,0.1-0.4,0.2-0.7c-0.2,0.2-0.4,0.3-0.6,0.5c-0.2,0.1-0.4,0.3-0.4,0.5
				c-0.3,0.2-0.7,0.5-1,0.7c-0.4,0.2-0.7,0.5-1,0.8c-0.8,0.7-1.6,1.5-2.4,2.4c-0.8,0.9-1.5,1.8-2.3,2.5c-0.2,0.2-0.4,0.4-0.6,0.6
				c-0.2,0.2-0.4,0.4-0.6,0.6c-0.1,0.2-0.2,0.4-0.4,0.5c-0.2,0.1-0.3,0.2-0.5,0.4c-0.5,0.6-1,0.9-1.4,1.1c-0.3,0.1-0.5,0.2-0.8,0.2
				c-0.1,0-0.3-0.1-0.4-0.1c-0.2,0-0.3-0.1-0.4-0.2c0,0-0.1,0-0.1-0.1c0-0.1-0.1-0.1-0.2-0.2l-0.5-0.6c0-0.1,0-0.2-0.1-0.3
				c-0.1-0.1-0.1-0.2-0.1-0.3c0-0.2,0.1-0.4,0.2-0.6c0.1-0.2,0.2-0.4,0.3-0.7l0.6-1.5c0.6-0.9,1.1-1.9,1.7-3c0.6-1.1,1.1-2.1,1.5-3
				c0.2-0.2,0.3-0.4,0.3-0.5c0.1-0.1,0.1-0.2,0.2-0.2c0,0,0.1-0.1,0.2-0.2c0.1-0.1,0.2-0.2,0.3-0.5l0.8-1.5L118.3,85.4z"/>
			<path d="M164.1,82c0.4,0,0.7,0,1.1,0.2c0.2,0,0.4,0.1,0.5,0.2c0.1,0.1,0.3,0.2,0.4,0.2c0.1,0.1,0.2,0.2,0.2,0.3
				c0,0.1,0.1,0.2,0.2,0.3c0.1,0.2,0.2,0.3,0.3,0.4c0.1,0.1,0.1,0.3,0.2,0.5c0.1,0.3,0.1,0.5,0,0.8c-0.1,0.2-0.2,0.5-0.3,0.8
				c-0.2,0.5-0.4,1-0.7,1.5c-0.3,0.5-0.6,1-0.9,1.5c-0.2,0.2-0.4,0.3-0.6,0.3c-0.2,0-0.4,0.1-0.6,0.1c-0.2,0-0.3,0-0.3,0
				c0,0-0.2-0.1-0.4-0.2c-0.2-0.1-0.4-0.2-0.5-0.3c-0.1-0.1-0.2-0.3-0.3-0.5c-0.1-0.2-0.1-0.4,0-0.6l0.8-1.4
				c0.4-0.5,0.6-1.2,0.8-1.8l0.1-0.1l-0.6,0.2c-0.7,0.2-1.3,0.4-1.8,0.7c-0.6,0.3-1.1,0.7-1.7,1.1c-0.2,0.2-0.3,0.4-0.5,0.5
				c-0.2,0.1-0.3,0.3-0.4,0.6c0,0.1-0.1,0.3-0.1,0.4c0,0.2,0,0.3,0,0.4c0.1,0.2,0.1,0.4,0.2,0.6c0.1,0.2,0.2,0.4,0.3,0.6
				c0.2,0.1,0.3,0.3,0.4,0.5c0.1,0.2,0.2,0.4,0.4,0.6l2.1,2.9l0.2,0.3c0.5-0.2,1-0.4,1.5-0.6c0.5-0.1,0.9-0.3,1.3-0.6
				c0.4-0.2,0.9-0.4,1.4-0.6c0.5-0.2,1-0.4,1.5-0.7c0.3-0.1,0.5-0.2,0.8-0.3c0.3-0.1,0.6-0.3,0.9-0.4c0.2-0.1,0.3-0.2,0.5-0.3
				c0.1-0.1,0.3-0.2,0.5-0.3c0.4-0.2,0.7-0.4,1.1-0.6c0.3-0.2,0.7-0.4,1-0.5c0.3-0.1,0.6-0.3,0.9-0.5c0.3-0.2,0.6-0.3,0.9-0.4
				c0.3-0.1,0.4-0.1,0.5,0c0.1,0.1,0.2,0.2,0.4,0.4c0.1,0.1,0.1,0.3,0,0.5c-0.1,0.2-0.3,0.4-0.4,0.6l-1,0.5l-0.9,0.5l-0.4,0.2
				l-1.5,0.7l-0.8,0.4c-0.6,0.3-1.2,0.6-1.9,0.9c-0.6,0.3-1.3,0.5-1.9,0.8c-0.6,0.3-1.1,0.5-1.6,0.7c-0.5,0.2-1,0.5-1.5,0.7l-0.1,0
				c0,0-0.1,0.1-0.2,0.1l0.2,0.3c0.1,0.2,0.1,0.4,0.2,0.6c0.1,0.2,0.1,0.4,0.1,0.6c0.1,0.9-0.2,1.8-0.7,2.5c-0.6,0.8-1.3,1.5-2.2,2
				c-0.9,0.5-1.8,1-2.8,1.3c-1.2,0.4-2.3,0.7-3.3,0.7c-0.5,0-0.9,0-1.4-0.1c-0.4-0.1-0.8-0.3-1.1-0.5l-0.2-0.1l-0.1-0.1
				c-0.1-0.1-0.2-0.2-0.3-0.4c-0.1-0.2-0.1-0.3-0.2-0.4c0-0.1,0.1-0.2,0-0.3c0-0.1,0-0.2,0.1-0.4c0.1-0.3,0.2-0.5,0.4-0.7
				c0.2-0.2,0.4-0.4,0.6-0.6l1.1-1.1c0.8-0.7,1.5-1.2,2.2-1.6c0.2-0.1,0.4-0.2,0.6-0.3c0.2-0.1,0.4-0.3,0.6-0.4c0.1,0,0.3,0,0.4-0.1
				c0.1-0.1,0.3-0.2,0.3-0.2l1.4-0.7c0.3-0.1,0.5-0.2,0.6-0.4l0.1-0.1c-0.1-0.3-0.3-0.6-0.5-0.8c-0.2-0.2-0.4-0.5-0.7-0.9
				c-0.1-0.1-0.2-0.3-0.4-0.6c-0.2-0.3-0.4-0.6-0.6-1c-0.2-0.3-0.5-0.7-0.7-1c-0.2-0.3-0.3-0.5-0.4-0.7c-0.2-0.1-0.3-0.2-0.3-0.4
				c0-0.1-0.1-0.3-0.2-0.5l-0.3-0.6c-0.1-0.2-0.2-0.5-0.2-0.8c-0.1-0.3,0-0.8,0.3-1.3c0.3-0.5,0.7-1,1.2-1.4l1.1-0.9
				c0.6-0.3,1.2-0.7,1.7-1c0.6-0.3,1.1-0.5,1.7-0.6c0.3-0.1,0.7-0.2,1-0.2L164.1,82z M153.5,101.7l0.1,0l0,0.1l0.2,0
				c0.3-0.1,0.6-0.1,0.8-0.2c0.2-0.1,0.5-0.1,0.8-0.2c0.3-0.1,0.7-0.2,1.1-0.3c0.4-0.2,0.7-0.3,1-0.5c0.3-0.2,0.7-0.3,1-0.5
				c0.3-0.2,0.6-0.4,0.9-0.6c0.5-0.5,0.9-0.9,1.3-1.4c0.3-0.5,0.5-1.1,0.3-1.8l-1.1,0.5l-1.3,0.7l-1.7,1c-0.5,0.3-1,0.7-1.4,1
				s-0.8,0.7-1.2,1.2c-0.3,0.2-0.4,0.4-0.6,0.6c0.1,0,0.1,0-0.1,0.1s-0.2,0.2-0.3,0.2L153.5,101.7z"/>
			<path d="M190.4,59.6c0.6,0.3,1,0.6,1.1,0.8c0.1,0.2,0,0.7-0.3,1.3c-0.7,1.4-1.3,2.8-1.8,4.2c-0.6,1.4-1.2,2.7-2.1,4l-0.8,1.4
				c0.2-0.1,0.4-0.1,0.7-0.1c0.2,0,0.5,0,0.7,0c0.7-0.1,1.4-0.2,2-0.3c0.7-0.1,1.3-0.1,2-0.2c0.4,0,0.7,0,1,0c0.3,0,0.6,0.1,0.9,0.3
				c0.1,0.1,0.3,0.2,0.4,0.3c0.1,0.1,0.2,0.2,0.3,0.3c0.3,0.6,0.1,0.9-0.5,0.9c-0.4,0.1-0.8,0.2-1.2,0.2c-0.4,0-0.9,0.1-1.3,0.2
				c-1,0.1-2.1,0.3-3.1,0.4c-1,0.1-2,0.3-3,0.4c-0.5,0-0.7,0.2-0.7,0.6c-0.5,0.8-1,1.6-1.5,2.4c-0.5,0.8-0.9,1.6-1.4,2.4
				c-0.6,1.3-1.2,2.5-1.8,3.8c-0.6,1.2-1.2,2.5-1.7,3.8c-0.6,1.1-1.1,2.3-1.5,3.4c-0.4,1.1-0.9,2.3-1.2,3.4
				c-0.2,0.4-0.3,0.8-0.4,1.2c-0.1,0.4-0.2,0.8-0.2,1.2c0.2,0.4,0.2,0.9,0.1,1.3c0,0.4,0.1,0.6,0.2,0.7c0.1,0.1,0.3,0.1,0.7,0.1
				c0.5,0,1-0.1,1.4-0.2c0.5-0.1,0.9-0.2,1.2-0.4c1-0.4,2-0.9,2.9-1.4c0.9-0.6,1.8-1.1,2.7-1.6c1.4-0.9,2.6-1.8,3.6-2.7
				c1.1-0.9,2.1-1.9,3.2-2.9c0.5-0.5,1-0.9,1.4-1.4c0.4-0.4,0.9-0.9,1.3-1.4c0.5-0.5,0.8-0.6,1.1-0.5c0.3,0.1,0.4,0.5,0.4,0.9
				c0,0.2,0.1,0.4,0.1,0.4c0.1,0.1,0,0.1-0.1,0.2c-0.1,0.2-0.2,0.4-0.2,0.5c0,0.1-0.2,0.3-0.5,0.5c-1.3,1.4-2.6,2.7-3.9,3.9
				c-1.3,1.2-2.8,2.4-4.4,3.5c-0.7,0.5-1.6,1.1-2.5,1.8c-1,0.7-1.8,1.2-2.7,1.6c-0.6,0.3-1.3,0.5-2,0.8c-0.7,0.3-1.4,0.4-2.2,0.4
				c-1.3,0.2-2.4-0.2-3.4-1.1c-0.4-0.3-0.6-0.9-0.7-1.6c-0.3-0.6-0.3-1.3-0.1-2c0.2-0.7,0.4-1.4,0.5-2c0.2-1.5,0.7-3.2,1.4-5
				c0.7-1.8,1.5-3.6,2.2-5.3c0.5-1.2,1.2-2.5,2-3.9c0.8-1.4,1.5-2.7,2.2-4l0.3-0.5c0.1-0.1,0.1-0.2,0.1-0.2
				c-0.2-0.1-0.3-0.1-0.3-0.1c-0.3,0.1-0.7,0.2-1.1,0.2c-0.4,0-0.8,0.1-1.1,0.2c-0.9,0.2-1.8,0.4-2.6,0.6c-0.8,0.2-1.7,0.4-2.4,0.6
				c-0.4,0.1-0.9,0.1-1.3-0.1c-0.4-0.2-0.7-0.5-0.9-0.8c-0.3-0.6-0.2-0.9,0.2-0.9c0.7-0.2,1.2-0.3,1.8-0.5c0.5-0.1,1.1-0.3,1.6-0.4
				c1.3-0.3,2.5-0.5,3.7-0.7c1.2-0.2,2.4-0.4,3.7-0.6c0.4-0.1,0.6-0.2,0.7-0.4c1.3-1.8,2.5-3.7,3.5-5.5c1-1.9,2-3.8,3.1-5.7
				c0.1-0.1,0.2-0.3,0.3-0.3c0.1-0.1,0.2-0.2,0.3-0.3L190.4,59.6z"/>
			<path d="M202.1,84.2c0.2-0.2,0.4-0.5,0.7-0.8c0.3-0.3,0.6-0.5,0.9-0.8l0.2-0.5c0-0.1,0.1-0.2,0.3-0.2c0.1-0.1,0.3-0.1,0.4-0.1
				l0.3,0l0.1,0.1c0,0,0.1,0,0.1,0c0,0,0,0,0.1,0c0.2,0.1,0.4,0.2,0.6,0.3c0.2,0.1,0.4,0.3,0.5,0.6c0,0.3,0,0.5,0,0.6
				c-0.8,1.5-1.5,2.9-2.2,4.3c-0.7,1.4-1.4,2.8-2,4.1c-0.1,0.3-0.2,0.6-0.3,1c-0.2,0.4-0.3,0.9-0.5,1.3c-0.2,0.5-0.4,0.9-0.5,1.3
				c-0.2,0.4-0.3,0.7-0.3,1c0,0,0.1-0.1,0.2,0c0.1,0,0.2,0,0.2,0c0.3-0.4,0.7-0.8,1.1-1.1c0.6-0.5,1.1-0.9,1.5-1.1
				c0.4-0.2,0.8-0.5,1.1-0.9c0.2-0.2,0.4-0.4,0.7-0.6c0.3-0.1,0.5-0.3,0.7-0.4c0.2-0.1,0.5-0.3,0.9-0.5c0.4-0.3,0.9-0.6,1.3-0.9
				c0.5-0.3,0.9-0.6,1.3-0.9c0.4-0.3,0.7-0.5,0.9-0.7c0.3-0.2,0.6-0.3,0.9-0.6c0.3-0.2,0.5-0.4,0.8-0.6c0.3-0.2,0.8-0.5,1.2-0.9
				c0.5-0.4,0.9-0.6,1.2-0.7c0.4-0.3,0.8-0.5,1-0.5c0.2,0,0.4,0.3,0.3,0.9c0.1,0.1,0.1,0.2,0.2,0.4c0,0.2,0,0.3-0.1,0.3
				c-0.3,0.2-0.5,0.4-0.6,0.5c-0.1,0.1-0.3,0.3-0.6,0.5c-0.8,0.4-1.6,1-2.5,1.6c-0.9,0.6-1.7,1.2-2.5,1.6c-0.4,0.2-0.8,0.5-1.4,0.9
				s-1.1,0.7-1.6,1.1c-0.5,0.4-1.1,0.8-1.6,1.1c-0.5,0.4-1,0.7-1.3,1c-0.1,0.2-0.3,0.4-0.5,0.6c-0.2,0.2-0.5,0.4-0.7,0.5
				c-0.3,0.2-0.7,0.5-1.2,0.8c-0.5,0.4-0.9,0.8-1.4,1.4c-0.2,0.1-0.4,0.3-0.6,0.6c-0.3,0.2-0.4,0.4-0.6,0.6
				c-0.2,0.3-0.3,0.6-0.4,0.8c-0.1,0.2-0.2,0.4-0.3,0.6c-0.3,0.7-0.6,1.2-0.8,1.6c-0.2,0.4-0.4,0.9-0.6,1.7c-0.4,0.5-0.7,1.1-1,1.8
				c-0.3,0.6-0.5,1.3-0.8,1.9c-0.3,0.7-0.6,1.4-0.9,2.1c-0.3,0.7-0.6,1.3-0.8,1.9c-0.3,0.7-0.6,1.4-0.8,2.1c-0.2,0.7-0.5,1.4-0.7,2
				c-0.3,1-0.6,1.8-0.9,2.3c-0.2,0.5-0.5,1.1-0.8,1.9c-0.2,0.3-0.3,0.6-0.3,0.8c-0.1,0.1-0.1,0.3-0.2,0.4c-0.1,0.2-0.1,0.3-0.2,0.4
				l-0.5,0.6c-0.1,0.1-0.2,0.2-0.2,0.3c0,0.1-0.1,0.2-0.3,0.3c-0.1,0.1-0.2,0.2-0.3,0.2c-0.1,0-0.2,0.1-0.3,0.2
				c-0.1,0.1-0.3,0.1-0.5,0.2c-0.2,0-0.4,0-0.7,0c-0.2,0-0.4,0-0.5,0c-0.1,0-0.3-0.1-0.5-0.3c-0.4-0.1-0.6-0.2-0.7-0.3
				c-0.1-0.1-0.2-0.2-0.3-0.4c-0.2-0.3-0.4-0.6-0.6-0.7c-0.1-0.2-0.2-0.4-0.3-0.5c-0.1-0.1-0.2-0.3-0.2-0.5
				c-0.2-0.5-0.4-0.9-0.6-1.4c-0.2-0.4-0.2-0.9-0.3-1.4c-0.1-0.5-0.2-0.9-0.2-1.4c0-0.4,0-0.9,0-1.5c0.1-0.5,0.2-1,0.3-1.5
				c0.1-0.5,0.3-1,0.6-1.5c0.2-0.5,0.5-0.9,0.7-1.3c0.2-0.4,0.5-0.8,0.8-1.3c0.1-0.2,0.3-0.5,0.6-0.9c0.3-0.4,0.6-0.8,1-1.2
				c0.4-0.4,0.8-0.9,1.2-1.3c0.4-0.4,0.8-0.8,1.2-1.2c1.1-1.1,2.3-2.1,3.4-3.1c1.2-1,2.3-1.9,3.6-2.7c0.1-0.1,0.2-0.2,0.2-0.2
				c0,0,0.1,0,0.2-0.1c0.4-0.7,0.7-1.4,0.9-2.1c0.2-0.7,0.5-1.3,0.7-1.8c0.3-0.8,0.6-1.5,0.9-2.3c0.3-0.7,0.6-1.5,0.9-2.2l0.7-1.4
				l-1.5,1.5c-0.2,0.2-0.5,0.5-0.9,0.9c-0.4,0.4-0.9,0.8-1.4,1.3c-0.5,0.4-1,0.9-1.4,1.2c-0.4,0.4-0.7,0.6-0.9,0.8
				c-0.5,0.5-0.9,0.8-1.4,1.1c-0.2,0.1-0.4,0.2-0.7,0.3c-0.2,0.1-0.5,0.1-0.7,0.1c-0.1,0-0.3,0-0.4-0.1c-0.3,0-0.5-0.1-0.6-0.2
				l-0.3-0.3c-0.1-0.1-0.2-0.2-0.3-0.3s-0.2-0.2-0.3-0.3c0-0.1,0-0.3,0-0.5c0-0.5,0-1,0.2-1.3c0.1-0.2,0.2-0.4,0.3-0.6
				c0.1-0.2,0.2-0.4,0.2-0.5l0.8-2.3c0.1-0.1,0.2-0.4,0.4-0.7c0.2-0.4,0.3-0.7,0.4-1.1c0.1-0.4,0.3-0.8,0.4-1.1
				c0.1-0.4,0.2-0.6,0.3-0.8l0.3-1.1c0.1-0.2,0.1-0.3,0.2-0.5c0.1-0.1,0.1-0.3,0.3-0.5l0-0.5c0.1-0.1,0.2-0.2,0.2-0.5
				c0-0.2,0.1-0.4,0.1-0.6c0.1-0.2,0.1-0.3,0.1-0.6c0.1-0.3,0.2-0.5,0.5-0.5c0.2,0,0.5,0.1,0.6,0.2c0.4,0.1,0.7,0.4,0.8,0.7
				c0.1,0,0.2,0.1,0.2,0.4l-0.2,0.7c0,0.2,0,0.4,0,0.5c-0.1,0.2-0.1,0.4-0.2,0.6c0,0.2-0.1,0.4-0.2,0.7l-1,2.8
				c-0.2,0.4-0.3,0.7-0.4,1.1c-0.1,0.4-0.2,0.7-0.4,1.1c-0.1,0.4-0.2,0.8-0.4,1.2c-0.2,0.4-0.3,0.8-0.5,1.1l-0.5,1.2
				c0.1-0.1,0.3-0.1,0.4-0.3c0.3-0.3,0.6-0.5,0.9-0.6c0.3-0.1,0.5-0.4,0.8-0.6c0.1,0,0.3-0.2,0.7-0.6s0.7-0.7,1.1-1.1
				c0.4-0.4,0.8-0.8,1.1-1.1c0.3-0.3,0.5-0.5,0.6-0.6l3.2-3.6c0.2-0.3,0.4-0.6,0.6-0.8C201.4,84.8,201.7,84.5,202.1,84.2z
				 M194.5,103.4c0.1-0.3,0-0.3-0.2-0.1c-0.3,0.2-0.6,0.6-1,1c-0.4,0.4-0.9,0.9-1.4,1.4c-0.5,0.5-0.9,0.8-1.2,1.1
				c-0.6,0.6-1.2,1.3-1.8,2c-0.6,0.7-1.2,1.4-1.8,2c-0.4,0.8-0.8,1.5-1.2,2.2c-0.5,0.7-0.8,1.5-1,2.3l-0.2,2.4c0,0.4,0.1,0.7,0.1,1
				c0.1,0.3,0.1,0.7,0.2,0.9c0.1,0.3,0.2,0.5,0.4,0.8c0.1,0.3,0.3,0.5,0.4,0.7c0.1,0.2,0.3,0.3,0.4,0.4c0.2,0,0.3-0.1,0.4-0.3
				c0.1-0.2,0.2-0.5,0.4-0.8c0.2-0.3,0.3-0.6,0.4-0.8c0.2-0.5,0.5-1,0.6-1.6c0.2-0.6,0.4-1.1,0.8-1.7c0.3-0.7,0.6-1.4,0.8-2
				c0.2-0.7,0.5-1.3,0.7-2c0.3-0.6,0.6-1.2,0.8-1.8c0.2-0.6,0.5-1.2,0.8-2c0.3-0.7,0.6-1.3,0.9-1.9c0.3-0.6,0.6-1.3,0.9-1.9
				c0-0.2,0-0.3,0-0.2c0,0.1,0,0,0.1-0.2L194.5,103.4z"/>
			<path d="M227,59.1c0,0,0.1,0,0.1,0c0,0,0.1,0,0.1,0l0.1,0.1c0.2,0,0.4,0,0.4,0c0.1,0,0.1,0,0.2,0.1c0.4,0.2,0.7,0.5,0.8,0.7
				c0.1,0.1,0.1,0.3,0,0.4c0,0.2,0,0.4,0,0.5c0,0.1-0.1,0.3-0.1,0.5c-0.4,1.3-0.9,2.6-1.4,3.9s-1.1,2.5-1.7,3.8
				c-0.7,1.3-1.3,2.5-1.9,3.8c-0.6,1.3-1.3,2.6-2,3.9c-0.3,0.6-0.6,1.2-0.9,1.7c-0.3,0.5-0.6,1.1-0.9,1.8l-1.8,3.8
				c-0.3,0.6-0.6,1.3-0.8,2c-0.2,0.7-0.4,1.4-0.6,2.1c-0.2,0.4-0.3,0.7-0.4,1c-0.1,0.3-0.2,0.7-0.4,1c-0.1,0.2-0.1,0.4-0.2,0.6
				c0,0.2-0.1,0.3-0.1,0.5l-0.3,1.1c0,0.2,0,0.4-0.1,0.7c-0.1,0.2-0.1,0.4-0.2,0.7c0,0.2,0,0.5,0,0.7c0,0.2,0,0.5,0,0.7
				c0,0.2,0,0.3,0,0.4c0,0.1,0.1,0.2,0.1,0.4c0,0.1,0.1,0.2,0.1,0.3c0,0,0.1,0.1,0.2,0.1c0.5,0,1-0.1,1.5-0.3
				c0.7-0.1,1.3-0.3,1.9-0.6c0.6-0.3,1.2-0.6,1.7-1c0.6-0.4,1.2-0.8,1.8-1.2c0.6-0.4,1.2-0.9,1.8-1.4c0.5-0.4,1.1-0.9,1.6-1.4
				c0.5-0.5,1-1,1.6-1.5c0.4-0.4,0.7-0.7,0.9-0.8s0.5-0.4,0.8-0.8l2.1-2.1c0-0.1,0.1-0.2,0.3-0.2l0.4,0c0,0,0.1,0,0.1,0.1
				c0,0,0.1,0.1,0.1,0.1c0,0,0.1,0.1,0.1,0.1c0.3,0.1,0.5,0.3,0.6,0.6l0,0.3l-1.6,1.7c-0.2,0.3-0.3,0.4-0.3,0.5c0,0-0.1,0.2-0.4,0.4
				c-0.5,0.6-1,1.1-1.5,1.7c-0.5,0.4-0.9,0.8-1.3,1.1c-0.4,0.4-0.8,0.8-1.3,1.2c-0.5,0.4-0.9,0.8-1.4,1.2c-0.5,0.4-0.9,0.8-1.5,1.2
				c-0.4,0.4-0.9,0.7-1.4,1c-0.5,0.3-1,0.6-1.5,0.9l-1.7,0.8c-0.3,0.1-0.5,0.1-0.8,0.2c-0.3,0.1-0.5,0.2-0.7,0.2
				c-0.2,0-0.3,0-0.5,0.1c-0.1,0-0.3,0-0.5,0.1c-0.4,0-0.7,0-0.9,0l-0.5-0.2c-0.2-0.1-0.4-0.2-0.6-0.2c-0.1-0.1-0.1-0.2-0.1-0.3
				l-0.5-0.2c-0.1-0.2-0.3-0.3-0.4-0.4c-0.1-0.1-0.2-0.2-0.2-0.3c-0.1-0.2-0.2-0.3-0.3-0.4c-0.1-0.1-0.1-0.3-0.2-0.5
				c0-0.1,0-0.3-0.1-0.4c0-0.2-0.1-0.3-0.2-0.4l-0.1-1.4c0-0.1,0-0.2,0-0.3c0-0.1,0-0.2,0-0.4c0.1-0.3,0.1-0.7,0.2-1
				c0-0.4,0.1-0.7,0.2-1.1c0.1-0.4,0.2-0.7,0.3-1.2c0.1-0.4,0.3-0.8,0.4-1.2c0-0.4,0.1-0.7,0.2-1.1c0.1-0.4,0.3-0.8,0.4-1.2
				c0.2-0.3,0.3-0.6,0.4-1s0.3-0.7,0.5-1c0.1-0.3,0.3-0.6,0.4-0.9c0.2-0.3,0.3-0.7,0.4-1c0.2-0.6,0.5-1.2,0.8-1.7
				c0.4-0.6,0.7-1.1,1-1.7c0.3-0.7,0.7-1.3,1-1.9s0.7-1.2,1-1.9c0.3-0.6,0.6-1.2,1-1.8c0.3-0.6,0.7-1.2,1.1-1.8
				c0.3-0.6,0.6-1.2,0.9-1.7c0.3-0.5,0.6-1.1,1-1.8c0.2-0.3,0.4-0.6,0.5-1c0.1-0.3,0.3-0.7,0.4-1c0.2-0.4,0.3-0.7,0.4-1
				c0.1-0.3,0.2-0.6,0.4-0.9c0.1-0.4,0.2-0.7,0.3-1c0.2-0.3,0.3-0.6,0.3-1c0.1-0.2,0.1-0.3,0.2-0.4c0.1-0.1,0.1-0.3,0.1-0.4
				c0.1-0.3,0.2-0.5,0.3-0.7c0.1-0.2,0.2-0.4,0.3-0.7L227,59.1z"/>
			<path d="M237.2,79l0.2,0c0.2,0,0.5,0,0.8,0.1c0.4,0.1,0.7,0.1,0.9,0.2c0.2,0.1,0.4,0.2,0.5,0.4c0.2,0.2,0.3,0.5,0.3,0.8
				c0.1,0.2,0.1,0.4,0,0.6c-0.1,0.2-0.1,0.4-0.1,0.5c0,0.3,0,0.5-0.1,0.6c-0.1,0.2-0.2,0.4-0.3,0.6c-0.1,0.2-0.2,0.4-0.3,0.5
				c-0.1,0.1-0.2,0.3-0.3,0.5c-0.5,0.8-1.1,1.4-1.8,2c-0.7,0.5-1.3,1.1-2,1.5c-0.2,0.1-0.4,0.1-0.6,0.2c-0.2,0.1-0.4,0.2-0.6,0.2
				c0,0.1-0.3,0.2-0.8,0.4c0,0-0.1,0.1-0.2,0.1c0,0-0.1,0-0.2,0.1l-0.5,0c-0.1,0-0.2,0-0.2,0c0,0-0.1,0-0.2,0c0,0,0,0-0.2-0.1
				c0,0.4-0.1,0.7-0.2,1c-0.1,0.3-0.1,0.6,0,0.9c0.1,0.2,0.1,0.4,0,0.8c0,0.3,0.1,0.6,0.2,0.7l0.6,0.6c0.1,0.1,0.2,0.1,0.5,0.1
				c0.2,0,0.4,0,0.5,0.1c0.9,0,1.7-0.2,2.6-0.5c0.7-0.3,1.6-0.7,2.5-1.1c0.9-0.4,1.8-0.8,2.7-1.3c0.2-0.2,0.4-0.3,0.7-0.4
				c0.2-0.1,0.5-0.2,0.7-0.4l2.5-1.8l2.6-1.9l2-1.6c0.1-0.1,0.3-0.1,0.5-0.1l0.3,0c0.2,0.1,0.3,0.1,0.2,0.1c0,0,0,0,0.1,0.1
				c0.1,0.1,0.1,0.2,0.1,0.4c-0.1,0.2,0,0.3,0.1,0.5l-0.1,0.3c-0.1,0.1-0.3,0.3-0.7,0.6c-0.4,0.3-0.6,0.5-0.6,0.6
				c-0.1,0.1-0.1,0.2-0.2,0.2c0,0-0.2,0.1-0.4,0.4c-0.2,0.3-0.7,0.7-1.3,1.1c-0.6,0.4-1,0.7-1.3,1c-0.3,0.2-0.6,0.4-1,0.7
				c-0.4,0.3-0.8,0.6-1.2,0.9c-0.4,0.3-0.8,0.6-1.2,0.8c-0.4,0.2-0.7,0.4-0.9,0.5c-0.6,0.4-1.1,0.7-1.5,0.9
				c-0.4,0.2-0.8,0.5-1.3,0.7L237,94c-0.3,0.1-0.7,0.1-1.1,0.2c-0.4,0.1-0.7,0.1-0.9,0.2c-0.3-0.1-0.6-0.1-0.8,0
				c-0.2,0.1-0.5,0-0.8,0c-0.2,0.1-0.4,0-0.6,0c-0.2-0.1-0.4-0.1-0.6-0.2c-0.2-0.1-0.4-0.2-0.7-0.2c-0.2-0.1-0.4-0.2-0.6-0.3
				c-0.1-0.1-0.4-0.3-0.7-0.4s-0.5-0.3-0.6-0.5c-0.1-0.1-0.2-0.4-0.4-0.8c-0.2-0.5-0.3-1.1-0.3-1.7c0.1-0.6,0.1-1.1,0.1-1.5
				c0-0.1,0-0.4,0.2-0.7c0.3-1.3,0.9-2.5,1.8-3.7c0.9-1.1,1.9-2.2,2.9-3.1c0.3-0.4,0.7-0.7,1.1-0.9c0.4-0.2,0.8-0.5,1.1-0.7
				c0.3-0.2,0.5-0.3,0.6-0.3L237.2,79z M235.5,82.7c-0.2,0.2-0.4,0.5-0.7,0.7c-0.3,0.3-0.5,0.5-0.7,0.7c-0.3,0.3-0.5,0.6-0.7,0.8
				c-0.2,0.3-0.4,0.6-0.7,0.9c0,0.2-0.1,0.5-0.4,0.7l0.8-0.4c0.1-0.1,0.2-0.2,0.3-0.2c0.1-0.1,0.2-0.1,0.3-0.2
				c0.3-0.1,0.5-0.3,0.7-0.4c0.2-0.1,0.4-0.3,0.6-0.4c0.1-0.1,0.3-0.3,0.4-0.5c0.1-0.2,0.3-0.3,0.6-0.5c0.2-0.2,0.3-0.3,0.4-0.5
				c0.1-0.1,0.2-0.3,0.3-0.6l0.4-0.9l0.1-0.3c-0.2,0.1-0.3,0.2-0.4,0.2c-0.1,0-0.2,0.1-0.3,0.2L235.5,82.7z"/>
		</g>
	</g>
	<g>
		<g>
			<path class="st9" d="M87.4,115.6v1.1h-3.1v1.3h2.9v1h-2.9v1.5h3.2v1.1h-4.5v-5.9H87.4z"/>
			<path class="st9" d="M95.7,121.3c-0.4,0.2-0.9,0.3-1.4,0.3c-0.5,0-0.9-0.1-1.2-0.2c-0.4-0.2-0.7-0.4-0.9-0.7
				c-0.2-0.3-0.4-0.6-0.6-1c-0.1-0.4-0.2-0.8-0.2-1.2c0-0.4,0.1-0.9,0.2-1.2s0.3-0.7,0.6-1c0.2-0.3,0.6-0.5,0.9-0.7
				c0.4-0.2,0.8-0.2,1.2-0.2c0.5,0,0.9,0.1,1.2,0.2s0.7,0.4,0.9,0.7s0.4,0.6,0.6,1s0.2,0.8,0.2,1.2c0,0.4-0.1,0.8-0.2,1.2
				c-0.1,0.4-0.3,0.7-0.6,1l0.7,0.7l-0.6,0.6L95.7,121.3z M95.5,119.9c0.1-0.1,0.2-0.3,0.3-0.6c0.1-0.2,0.1-0.5,0.1-0.8
				c0-0.3,0-0.5-0.1-0.8s-0.2-0.5-0.3-0.7c-0.1-0.2-0.3-0.3-0.5-0.5c-0.2-0.1-0.5-0.2-0.7-0.2s-0.5,0.1-0.7,0.2s-0.4,0.3-0.5,0.5
				s-0.2,0.4-0.3,0.7s-0.1,0.5-0.1,0.8c0,0.2,0,0.5,0.1,0.7c0.1,0.2,0.2,0.4,0.3,0.6c0.1,0.2,0.3,0.3,0.5,0.5s0.5,0.2,0.7,0.2
				c0.1,0,0.2,0,0.3,0c0.1,0,0.1,0,0.2-0.1l-0.6-0.5l0.6-0.6L95.5,119.9z"/>
			<path class="st9" d="M105.8,121c-0.4,0.4-1.1,0.6-1.9,0.6c-0.8,0-1.4-0.2-1.9-0.6s-0.7-1-0.7-1.8v-3.7h1.3v3.7c0,0.2,0,0.3,0,0.5
				c0,0.2,0.1,0.3,0.2,0.4c0.1,0.1,0.2,0.2,0.4,0.3c0.2,0.1,0.4,0.1,0.6,0.1c0.5,0,0.8-0.1,1-0.3c0.2-0.2,0.3-0.5,0.3-1v-3.7h1.3
				v3.7C106.5,120,106.2,120.6,105.8,121z"/>
			<path class="st9" d="M115.3,115.6v1.1h-3.1v1.3h2.9v1h-2.9v1.5h3.2v1.1h-4.5v-5.9H115.3z"/>
			<path class="st9" d="M120.6,120c0.1,0.1,0.2,0.2,0.3,0.3s0.3,0.1,0.4,0.2c0.2,0,0.3,0.1,0.5,0.1c0.1,0,0.2,0,0.4,0
				s0.3-0.1,0.4-0.1s0.2-0.1,0.3-0.2c0.1-0.1,0.1-0.2,0.1-0.4c0-0.2-0.1-0.3-0.2-0.4s-0.2-0.2-0.4-0.2c-0.2-0.1-0.4-0.1-0.6-0.2
				s-0.4-0.1-0.6-0.2c-0.2-0.1-0.4-0.1-0.6-0.2c-0.2-0.1-0.4-0.2-0.6-0.3c-0.2-0.1-0.3-0.3-0.4-0.5c-0.1-0.2-0.2-0.4-0.2-0.7
				c0-0.3,0.1-0.6,0.2-0.8c0.1-0.2,0.3-0.4,0.5-0.6c0.2-0.1,0.4-0.3,0.7-0.3s0.5-0.1,0.8-0.1c0.3,0,0.6,0,0.9,0.1s0.5,0.2,0.8,0.3
				c0.2,0.2,0.4,0.4,0.5,0.6c0.1,0.2,0.2,0.5,0.2,0.9h-1.3c0-0.2,0-0.3-0.1-0.4s-0.1-0.2-0.3-0.3c-0.1-0.1-0.2-0.1-0.4-0.1
				c-0.1,0-0.3,0-0.4,0c-0.1,0-0.2,0-0.3,0c-0.1,0-0.2,0.1-0.3,0.1c-0.1,0.1-0.2,0.1-0.2,0.2c-0.1,0.1-0.1,0.2-0.1,0.3
				c0,0.1,0,0.2,0.1,0.3c0,0.1,0.1,0.1,0.3,0.2c0.1,0.1,0.3,0.1,0.5,0.2c0.2,0.1,0.5,0.1,0.9,0.2c0.1,0,0.3,0.1,0.5,0.1
				c0.2,0.1,0.4,0.2,0.6,0.3c0.2,0.1,0.4,0.3,0.5,0.5c0.1,0.2,0.2,0.5,0.2,0.8c0,0.3-0.1,0.5-0.2,0.8c-0.1,0.2-0.3,0.4-0.5,0.6
				c-0.2,0.2-0.5,0.3-0.8,0.4c-0.3,0.1-0.7,0.1-1.1,0.1c-0.3,0-0.6,0-1-0.1s-0.6-0.2-0.8-0.4c-0.2-0.2-0.4-0.4-0.6-0.7
				c-0.1-0.3-0.2-0.6-0.2-0.9h1.3C120.5,119.7,120.5,119.9,120.6,120z"/>
			<path class="st9" d="M127.8,116.7v-1.1h4.9v1.1h-1.8v4.8h-1.3v-4.8H127.8z"/>
			<path class="st9" d="M139.9,115.6c0.3,0,0.5,0,0.7,0.1s0.4,0.2,0.5,0.4s0.3,0.3,0.3,0.5c0.1,0.2,0.1,0.4,0.1,0.6
				c0,0.3-0.1,0.7-0.2,0.9c-0.1,0.3-0.4,0.4-0.7,0.6v0c0.2,0,0.3,0.1,0.4,0.2c0.1,0.1,0.2,0.2,0.3,0.3c0.1,0.1,0.1,0.3,0.1,0.4
				c0,0.1,0.1,0.3,0.1,0.4c0,0.1,0,0.2,0,0.3c0,0.1,0,0.3,0,0.4s0,0.3,0.1,0.4s0.1,0.2,0.1,0.3h-1.3c-0.1-0.2-0.1-0.4-0.1-0.7
				c0-0.3,0-0.5-0.1-0.7c0-0.3-0.1-0.5-0.3-0.7c-0.1-0.1-0.4-0.2-0.7-0.2H138v2.3h-1.3v-5.9H139.9z M139.4,118.2
				c0.3,0,0.5-0.1,0.7-0.2s0.2-0.3,0.2-0.6c0-0.3-0.1-0.5-0.2-0.6s-0.4-0.2-0.7-0.2H138v1.7H139.4z"/>
			<path class="st9" d="M147.3,115.6v5.9H146v-5.9H147.3z"/>
			<path class="st9" d="M154.7,115.6l2.2,5.9h-1.4l-0.4-1.3h-2.2l-0.5,1.3h-1.3l2.2-5.9H154.7z M154.8,119.2l-0.7-2.2h0l-0.8,2.2
				H154.8z"/>
			<path class="st9" d="M162.1,115.6l2.5,4h0v-4h1.2v5.9h-1.3l-2.5-4h0v4h-1.2v-5.9H162.1z"/>
		</g>
	</g>
</g>
<g id="Logo_Mark" class="st0">
</g>
<g id="Alternative_Logo" class="st0">
</g>
</svg>
